<?xml version="1.0" encoding="UTF-8"?>
<svg id="Layer_2" data-name="Layer 2" xmlns="http://www.w3.org/2000/svg" viewBox="0 0 100 100">
  <defs>
    <style>
      .cls-1 {
        fill: #202020;
      }

      .cls-2 {
        fill: none;
      }
    </style>
  </defs>
  <g id="whatever">
    <g>
      <path class="cls-1" d="M74.63,41.38s-.01,.02,0,0h0Z"/>
      <path class="cls-1" d="M81.53,39.75h0c-.01-.1-.02-.19-.03-.25l.02,.25Z"/>
      <path class="cls-1" d="M82.75,40.19s0,.02,.01,.03c-.01-.06-.02-.12-.01-.03Z"/>
      <path class="cls-1" d="M79.08,41.06s-.01,.02-.01,.05c0-.02,0-.04,.01-.05Z"/>
      <path class="cls-1" d="M72.59,42.1h0s0-.04-.02-.07v.07Z"/>
      <path class="cls-1" d="M72.6,41.92c.03,.07,0,.14,0,.16,.04,.13,.07,.14,.09,.08-.01-.15-.06-.13-.09-.24Z"/>
      <path class="cls-1" d="M68.82,42.77v-.06s0,.04,0,.06Z"/>
      <path class="cls-1" d="M80.22,48.55s0,.02-.01,.04c0,0,.01-.01,.01-.04Z"/>
      <path class="cls-1" d="M69.43,42.9v-.24c0,.1,0,.18,0,.24Z"/>
      <path class="cls-1" d="M81.51,39.5v-.1s0,.06,0,.1Z"/>
      <path class="cls-1" d="M83.82,40.16c.02,.07,.03,.13,.04,.18h0s-.04-.18-.04-.18Z"/>
      <path class="cls-1" d="M89.86,42.93l-.02-.09,.02,.17s0-.05,0-.08Z"/>
      <path class="cls-1" d="M85.43,40.95s0-.05-.01-.08c-.04-.08-.11-.08-.19-.06l.05,.3,.15-.15Z"/>
      <path class="cls-1" d="M88.39,47.51l-.28-.56c.46-.38,.82,.17,1.16-.4v.13c.1,.12-.15-1.21,.9,.26v.06s0-.13,.09,.01l-.2-.34c.04-.16,.04-.46,.13-.52,.03,.06,.07,.18,.09,.27l.22-.15,.16,.37c.03-.22-.19-1.02,.11-.62-.2-.54,.02-.36-.07-.64,.03,.07,.07,.16,.11,.26,.1-.09,.28-.3,.27-.59,0,0-.72-1.07-.97-1.64,.19,.12,.03-.08-.05-.26l.02,.14c-.13-.11-.2-.47-.27-.55,0,.03,.02,.06,.02,.1v-.05c.01,.06,.02,.1,.02,.14,.02,.08,.03,.14,0,.12v-.04c-.03,.06-.11,.02-.15,0l-.07-.29c.05,.58-.66-.75-.76-.75-.17-.35-.19,.14-.35-.02-.21-.05-.19-.41-.33-.64-.16-.16,.1,.34,.05,.37l-.23-.38c.07-.05,0-.22-.05-.33-.13-.02-.43-.53-.35,.07-.22-.25-.27-.48-.35-.5,.05,.1,.11,.19,.14,.31-.12-.25-.02,.07,.02,.12-.05,.28-.74-.97-.62-.32l-.02-.12c.07,.49,.21,.95,.19,1.23l-.09-.21-.03,.22c-.08-.15-.08-.28-.09-.34-.07,.25-.28,.01-.43-.03l.41,1.29c-.18-.28-.51-.86-.45-.43l-.16-.43c-.4-.8-.09,.4-.24,.16l-.21-.46h.12c-.16-.24-.24-.38-.39-.68h0s.02,.05,.03,.08h-.01c.03,.26,0,.43-.08,.43-.13-.05-.16,.33-.44-.15l.04,.5-.19-.27-.07-.39c.14,0,.37-.2,.54-.25l-.03-.18c-.1,.02-.19,.22-.27,.19-.05-.07-.21-.47-.2-.74v.4c-.33,.11-.33,.13-.77-.25l.07,.19c-.05,.13-.1,.25-.18-.06-.23-.03-.5-.24-.72-.71l.05,.47c-.05-.02-.24-.71-.15-.05l-.06,.22c-.07-.02-.06,.25-.18,0h0s0,0,0,0c0-.02-.01-.03-.02-.05v.04c-.17-.18,.08,.42-.13,.18-.11-.32,.04,.6-.06,.51l-.19-.65c-.21-.36-.12,.31-.33,.35-.14-.22-.28-.78-.29-1.3,0,.63,.02,.41-.05,.72-.06-.25-.05-.3-.06-.53-.15-.28-.03,.24-.11,.24,.05,.48,.14,1.24,.12,1.27l.05,.14c-.05,.27-.12,.4-.26,.18l-.03-.24-.09,.14-.05-.3-.14,.12,.03,.08s-.13,.17-.22,.02l-.02-.17c-.27-.5-.32,.22-.53,.3l-.02-.35c-.13-.33,.06,.54-.06,.38l-.07-.42c0,.57-.12-.1-.2-.31l.11,.55-.12-.1c-.14-.17-.17-.69-.2-.99v.45s-.1-.49-.1-.49c.03,.58-.07-.08-.12,.24-.03-.19-.02-.3-.07-.37l-.06,.72,.05-.32,.09,.72c-.03,.56-.15-.06-.19,.15l.02-.22c-.09,.19-.14-.11-.23-.26,.04,.13,.1,.33,.06,.43-.03,.04-.05-.25-.1-.33,.06,.48,0,.75-.1,.53,0-.07-.01-.13-.02-.18,0,.08,0,.21-.05,.09l-.05-.54v.52c-.06-.14-.07,.26-.12-.11v-.11s-.34-.08-.34-.08l-.06-.43c.04,.59-.21-.2-.1,.53-.11-.39-.21,.31-.28-.52-.23-.04-.25,.78-.56,.41-.18-.69-.41-.43-.59-.49-.3,.33-.48,.62-.8,.89-.31-.96-.48,.4-.76-.14l-.02,.4c-.21-.61-.36,.18-.63-.41-.03,.18-.06,.23-.07,.25,.01,.02,.03,.09,.06,.34-.08-.17-.18,.06-.22-.43v-.05c-.03-.5-.15,.25-.25-.17l.09,.53-.12-.08,.02-.1c-.38,1.22-.75-.44-1.12,.68,.01-.58-.06,.31-.12-.32-.18-.79-.2,.19-.28,.41,0,.03,0,.07,0,.12l-.17-.06c.03-.81-.07,.67-.03-.01-.48-.56-1,.09-1.52-.15l.04,.2c-.13-.03-.27,.23-.39-.09-.12-.32-.18,.54-.21,.57-.08,.36-.23-.34-.18-.3-.11,.11-.17,.84-.35,.54-.09-.68-.39,.69-.44-.07v.06c-.23-.53-.37,.4-.62-.08,0,0,0-.06,0-.11l-.34,2.35,.25,2.56,.51,2.06,1.07-.51,.93,.76,2.12-.43,.1-.59c.51,.97,.94-.23,1.46,.44l-.04-.5c.12-.04,.14,.27,.18,.35,1.18-.22,2.31-1.02,3.44-.53,.14,.31,.43,.08,.55,.42,.27-.65,.63-.69,.98-.67v.06s.14-.12,.14-.12c.01,.04,.02,.1,.02,.14,.12-.46,.47-.07,.72,.08v.06c1.32-.1,2.38-1.21,3.78-.74,.74,.7,1.24-.53,2.05,0,.22,.46,1.54-.17,1.62-.43Z"/>
      <path class="cls-1" d="M90.29,46.43h0c.05,.21,.04,.13,0,0Z"/>
      <polygon class="cls-1" points="86.33 41.39 86.34 41.4 86.25 41.11 86.33 41.39"/>
      <path class="cls-1" d="M88.04,40.87c-.09-.05-.08,0-.06,.08,.03,0,.05-.01,.06-.08Z"/>
      <path class="cls-1" d="M90.87,45.89s0-.11-.05-.24c-.04,.03-.07,.05-.07,.05,.03,.04,.08,.15,.12,.19Z"/>
      <path class="cls-1" d="M90.07,43.15l-.02-.17s0,.11,.02,.17Z"/>
    </g>
    <g>
      <path class="cls-1" d="M35.2,54.28s.02-.02,0,0h0Z"/>
      <path class="cls-1" d="M25.48,56.75h0c.02,.1,.04,.19,.05,.25l-.04-.25Z"/>
      <path class="cls-1" d="M23.52,56.65s-.01-.01-.02-.02c.02,.06,.03,.12,.02,.02Z"/>
      <path class="cls-1" d="M28.82,54.97s.02-.02,.02-.05c0,.02,0,.04-.02,.05Z"/>
      <path class="cls-1" d="M38.17,53.56s0,0,0,0c0,.02,.01,.03,.02,.06v-.07Z"/>
      <path class="cls-1" d="M38.15,53.73c-.04-.07,0-.14,.02-.16-.05-.13-.09-.14-.12-.08,0,.15,.08,.13,.1,.24Z"/>
      <path class="cls-1" d="M43.69,53.17l-.02,.06s.01-.04,.02-.06Z"/>
      <path class="cls-1" d="M27.17,47.57s.02-.02,.02-.04c-.02,0-.02,.02-.02,.04Z"/>
      <path class="cls-1" d="M42.82,52.97l-.02,.24c.01-.1,.02-.18,.02-.24Z"/>
      <path class="cls-1" d="M25.52,57v.1s0-.06,0-.1Z"/>
      <path class="cls-1" d="M21.72,56.89c-.02-.07-.03-.13-.05-.18h0s.05,.18,.05,.18Z"/>
      <path class="cls-1" d="M12.98,53.77v.1s.04-.17,.04-.17c-.02,.02-.03,.04-.04,.08Z"/>
      <path class="cls-1" d="M19.19,56.23s0,.05,0,.09c.05,.08,.16,.08,.29,.05l-.03-.3-.26,.16Z"/>
      <path class="cls-1" d="M16.13,49.5l.25,.59c-.66,.33-1.01-.26-1.57,.25l.03-.13c-.08-.14-.11,1.23-1.08-.42v-.06s-.03,.13-.1-.03l.16,.37c-.1,.15-.18,.44-.31,.48-.03-.07-.04-.19-.04-.29l-.32,.1-.09-.39c-.1,.21-.07,1.04-.32,.57,.09,.57-.14,.34-.11,.63-.02-.07-.04-.18-.06-.28-.16,.06-.46,.21-.55,.5,0,0,.59,1.23,.76,1.84-.23-.16-.06,.07-.02,.26l.02-.14c.14,.14,.13,.5,.2,.6,0-.03,0-.06,0-.1v.05c-.02-.06-.01-.11,0-.14,0-.08,0-.14,.05-.12v.04c.05-.05,.15,0,.2,.03v.3c.1-.57,.72,.88,.87,.89,.15,.38,.33-.1,.52,.09,.3,.09,.16,.44,.32,.69,.19,.18-.05-.35,.02-.37l.24,.41c-.13,.04-.05,.22-.02,.34,.2,.04,.53,.58,.56-.02,.28,.28,.29,.51,.41,.54-.05-.11-.13-.2-.13-.32,.12,.26,.05-.07,0-.12,.14-.27,.92,1.04,.91,.38v.12c0-.49-.09-.97,0-1.25l.09,.21,.09-.22c.09,.15,.06,.29,.07,.35,.16-.24,.44,0,.67,.05l-.36-1.31c.21,.29,.61,.88,.6,.45l.16,.44c.47,.81,.22-.4,.39-.16l.25,.46-.19,.02c.22,.22,.31,.37,.51,.67h0s-.02-.05-.03-.08l.02-.02c0-.25,.07-.43,.2-.43,.2,.04,.29-.34,.67,.13v-.51s.27,.26,.27,.26l.07,.39c-.23,.01-.62,.23-.91,.29l.02,.18c.17-.02,.34-.23,.46-.21,.07,.07,.27,.46,.21,.74l.05-.4c.57-.14,.56-.15,1.25,.18l-.09-.19c.1-.14,.19-.27,.29,.04,.38,0,.81,.16,1.17,.6l-.05-.47c.08,0,.37,.67,.25,.02l.12-.24c.12,0,.12-.27,.3-.04h0s0,0,0,0c.01,.01,.02,.03,.04,.05v-.04c.28,.14-.12-.41,.22-.22,.17,.3-.06-.6,.1-.53l.31,.62c.34,.31,.2-.36,.52-.45,.22,.19,.45,.72,.49,1.24-.03-.64-.05-.41,.05-.74,.1,.24,.09,.29,.12,.53,.24,.24,.04-.25,.16-.27-.1-.47-.27-1.22-.24-1.26l-.09-.13c.05-.28,.16-.44,.36-.24l.06,.23,.12-.16,.09,.29,.19-.15-.05-.07c.04-.05,.17-.2,.31-.07l.04,.17c.39,.45,.43-.28,.72-.41l.04,.35c.19,.31-.1-.53,.07-.39l.11,.42c-.02-.58,.17,.08,.29,.27l-.16-.54,.17,.08c.2,.15,.25,.67,.3,.96v-.46s.14,.48,.14,.48c-.05-.58,.09,.07,.16-.26,.05,.18,.04,.29,.1,.36l.08-.73-.07,.33-.14-.71c.03-.57,.21,.04,.27-.18l-.03,.23c.13-.21,.2,.09,.33,.23-.06-.13-.14-.31-.09-.42,.04-.05,.08,.24,.14,.31-.09-.48-.01-.75,.14-.55,.01,.07,.02,.13,.02,.18,.01-.08,0-.21,.07-.1l.08,.53v-.52c.09,.13,.1-.27,.16,.09l-.02,.11,.5,.04,.08,.42c-.06-.59,.3,.18,.15-.55,.16,.38,.3-.34,.39,.49,.32,.01,.36-.81,.8-.47,.24,.68,.58,.4,.83,.44,.43-.36,.71-.67,1.18-.95,.41,.94,.7-.42,1.09,.1l.05-.4c.28,.6,.53-.19,.88,.39,.06-.18,.09-.23,.11-.25-.02-.02-.04-.09-.07-.34,.1,.17,.26-.07,.29,.43l-.02,.05c.03,.5,.24-.25,.37,.17l-.09-.53,.17,.08-.04,.11c.62-1.23,1.05,.43,1.65-.68-.06,.59,.12-.31,.16,.32,.2,.79,.3-.19,.43-.4,0-.03,0-.07,0-.12l.24,.07c-.12,.81,.15-.67,.04,.02,.65,.58,1.45-.05,2.18,.23l-.03-.21c.18,.04,.42-.21,.55,.12,.14,.33,.31-.52,.37-.55,.16-.35,.29,.36,.22,.32,.17-.1,.34-.83,.56-.51,.06,.68,.65-.65,.63,.12v-.06c.28,.55,.59-.36,.89,.15,0,0-.01,.06-.02,.11l.79-2.29-.04-2.57-.5-2.11-1.69,.39-1.33-.84c-1.1,.09-2.19,.2-3.28,.33l-.21,.59c-.69-.98-1.45,.23-2.18-.44l.02,.5c-.19,.04-.2-.26-.26-.35-1.81,.25-3.55,1.13-5.25,.77-.21-.3-.65-.03-.83-.35-.43,.69-.98,.78-1.51,.83v-.06s-.22,.14-.22,.14c-.02-.04-.03-.1-.03-.13-.19,.49-.72,.15-1.11,.06v-.06c-1.01,.18-1.98,.65-2.84,1.04-.87,.39-1.58,.66-2.45,.49-.88-.64-1.58,.62-2.56,.07-.22-.46-1.93,.09-2.09,.32Z"/>
      <path class="cls-1" d="M13.48,50.26h0c0-.21-.01-.13,0,0Z"/>
      <polygon class="cls-1" points="17.85 55.78 17.83 55.77 17.92 56.06 17.85 55.78"/>
      <path class="cls-1" d="M15.05,56.14c.13,.06,.13,.01,.11-.07-.05-.01-.09,0-.11,.07Z"/>
      <path class="cls-1" d="M12.57,50.65c-.06-.02-.04,.11,0,.25,.06-.02,.1-.03,.1-.03-.03-.05-.06-.16-.09-.21Z"/>
      <path class="cls-1" d="M12.76,53.5l-.02,.17s.04-.1,.02-.17Z"/>
    </g>
    <g>
      <path class="cls-1" d="M36.03,68.53s0-.02,0,0h0Z"/>
      <path class="cls-1" d="M33,78.6h0c.09,.05,.17,.09,.23,.12l-.23-.12Z"/>
      <path class="cls-1" d="M31.83,79.96s-.02,0-.03,0c.06,.02,.11,.04,.03,0Z"/>
      <path class="cls-1" d="M33.51,74.63s0-.03-.04-.04c.02,.02,.03,.03,.04,.04Z"/>
      <path class="cls-1" d="M36.62,65.45s0,0,0,0c.02,0,.04,0,.06,0h-.07Z"/>
      <path class="cls-1" d="M36.76,65.54c-.08,0-.13-.06-.14-.08-.14,0-.17,.03-.12,.09,.15,.05,.15-.03,.27,0Z"/>
      <path class="cls-1" d="M38.19,60.06l.05,.04s-.03-.02-.05-.04Z"/>
      <path class="cls-1" d="M26.36,72.11s-.01-.02-.03-.04c0,.01,0,.02,.03,.04Z"/>
      <path class="cls-1" d="M37.74,60.84l.23,.09c-.09-.04-.16-.07-.23-.09Z"/>
      <path class="cls-1" d="M33.23,78.72l.08,.05s-.05-.03-.08-.05Z"/>
      <path class="cls-1" d="M31.13,81.36c-.07-.02-.13-.04-.18-.06h0s.18,.06,.18,.06Z"/>
      <path class="cls-1" d="M24.73,87.27l.09,.03-.15-.09s.03,.04,.06,.06Z"/>
      <path class="cls-1" d="M29.38,82.97s.05,.02,.08,.04c.09,0,.14-.09,.17-.21l-.28-.12,.03,.29Z"/>
      <path class="cls-1" d="M22.03,82.59h.64c0,.79-.68,.88-.45,1.64l-.11-.08c-.16,.03,1.08,.58-.81,.9l-.06-.02s.11,.08-.06,.09l.41-.02c.1,.15,.34,.34,.33,.49-.07,0-.19-.03-.28-.07l-.03,.35-.4-.05c.16,.17,.94,.44,.42,.52,.57,.11,.27,.26,.55,.33-.07,0-.18-.02-.28-.03,0,.18,.04,.53,.29,.71,0,0,1.35-.16,1.98-.09-.23,.16,.04,.08,.24,.11l-.13-.07c.18-.08,.51,.05,.63,.03-.03,0-.06-.02-.09-.03l.04,.03c-.06-.02-.1-.04-.13-.06-.07-.03-.13-.06-.09-.08l.03,.02c-.03-.07,.06-.15,.1-.18l.28,.11c-.5-.31,1.06-.33,1.13-.45,.4,0,.02-.33,.26-.42,.19-.22,.46,.03,.75,0,.24-.09-.34-.1-.33-.17l.46-.04c0,.13,.18,.13,.3,.15,.11-.15,.73-.21,.19-.49,.35-.12,.58-.03,.64-.12-.11,0-.23,.02-.35-.02,.28,0-.04-.07-.11-.05-.19-.23,1.29-.32,.69-.59l.11,.04c-.45-.21-.91-.34-1.13-.53l.23,.02-.16-.17c.17,0,.28,.07,.34,.1-.15-.24,.18-.36,.32-.53l-1.33-.29c.35-.05,1.05-.11,.66-.3l.46,.07c.92-.01-.26-.36,.03-.4l.52,.02-.07,.16c.29-.07,.47-.08,.81-.09h-.01s-.05,0-.07-.02v-.03c-.22-.11-.35-.25-.29-.36,.13-.14-.16-.4,.42-.47l-.44-.25,.35-.09,.37,.14c-.09,.18-.09,.6-.16,.85l.17,.07c.05-.15-.05-.38,.03-.46,.09-.02,.53,.01,.74,.2l-.33-.23c.14-.5,.13-.51,.74-.86l-.2-.03c-.07-.14-.14-.29,.17-.2,.18-.28,.53-.51,1.08-.52l-.42-.21c.05-.06,.75,.1,.15-.16l-.14-.21c.07-.08-.16-.23,.13-.23h0s0,0,0,0c.02,0,.04,0,.06,0h-.04c.27-.14-.39-.16-.06-.29,.34,.05-.53-.3-.39-.37l.67,.13c.44-.06-.18-.34-.07-.63,.28-.05,.84,.08,1.28,.36-.53-.35-.36-.2-.57-.48,.25,.07,.29,.1,.49,.22,.34-.04-.18-.18-.12-.28-.44-.2-1.13-.52-1.15-.56h-.16c-.19-.22-.26-.4,.02-.45l.22,.09-.06-.19,.29,.1v-.25s-.1,0-.1,0c-.02-.06-.06-.27,.13-.3l.16,.06c.6-.07,.03-.54,.09-.87l.31,.17c.36,.02-.49-.22-.28-.28l.4,.15c-.49-.31,.17-.1,.39-.1l-.54-.16,.17-.1c.23-.09,.7,.16,.97,.28l-.37-.27,.47,.16c-.51-.28,.12-.05-.12-.29,.18,.06,.27,.13,.36,.11l-.57-.48,.24,.25-.67-.27c-.46-.34,.15-.17,0-.34l.18,.15c-.1-.23,.19-.13,.38-.17-.14-.02-.34-.05-.41-.15-.02-.06,.25,.06,.34,.05-.45-.18-.64-.39-.39-.42,.06,.03,.13,.05,.16,.07-.06-.06-.17-.11-.05-.12l.49,.22-.44-.27c.16,0-.17-.24,.17-.1l.09,.07,.3-.42,.41,.15c-.54-.25,.31-.18-.39-.42,.41,.05-.14-.45,.63-.1,.18-.28-.51-.73,0-.96,.71,.12,.64-.33,.8-.54-.1-.57-.24-.97-.27-1.53,1.03,.06-.05-.84,.59-.95l-.34-.22c.66,.01,.07-.57,.75-.65-.13-.13-.17-.19-.18-.21-.02,0-.1,0-.34-.08,.2-.02,.05-.26,.52-.08l.04,.04c.46,.18-.12-.33,.32-.27l-.52-.13,.14-.13,.08,.08c-.85-1.09,.85-.81,.07-1.82,.51,.28-.24-.23,.36-.02,.81,.11-.05-.36-.2-.56-.03-.01-.06-.02-.11-.05l.16-.2c.7,.41-.56-.39,.03-.03,.79-.39,.51-1.39,1.03-1.99l-.21-.04c.1-.16-.05-.47,.31-.49,.36-.02-.38-.47-.39-.53-.28-.27,.44-.16,.38-.11-.03-.19-.67-.59-.29-.7,.67,.16-.41-.82,.32-.57l-.06-.02c.61-.1-.15-.67,.42-.8,0,0,.05,.03,.1,.05l-1.96-1.39-2.48-.69-2.16-.17-.11,1.57-1.19,.86-.78,2.85,.47,.4c-1.15,.2-.33,1.29-1.22,1.63l.46,.18c-.03,.18-.32,.06-.42,.07-.47,1.57-.45,3.38-1.56,4.54-.36,.02-.33,.49-.7,.47,.4,.66,.22,1.14-.01,1.56l-.04-.04v.25s-.09-.03-.12-.05c.32,.39-.23,.62-.51,.84l-.04-.04c-.73,1.67-.46,3.58-1.74,5.02-1.05,.49-.35,1.81-1.32,2.47-.52-.01-.86,1.94-.71,2.19Z"/>
      <path class="cls-1" d="M21.64,85.52h0c-.19-.08-.13-.05,0,0Z"/>
      <polygon class="cls-1" points="28.4 83.85 28.39 83.86 28.68 83.92 28.4 83.85"/>
      <path class="cls-1" d="M27.65,86.34c.1-.09,.06-.11-.03-.12-.03,.03-.02,.08,.03,.12Z"/>
      <path class="cls-1" d="M21.68,86.55c-.04,.05,.09,.08,.23,.09,0-.07,0-.11,0-.11-.06,.01-.17,0-.23,.02Z"/>
      <path class="cls-1" d="M24.41,87.38l.15,.08s-.08-.07-.15-.08Z"/>
    </g>
    <g>
      <path class="cls-1" d="M48.81,31.44s-.01-.02,0,0h0Z"/>
      <path class="cls-1" d="M47.38,38.25h0c.09,.04,.17,.07,.24,.1l-.24-.1Z"/>
      <path class="cls-1" d="M46.45,39.11s-.02,0-.03,0c.06,.02,.11,.04,.03,0Z"/>
      <path class="cls-1" d="M47.28,35.52s-.01-.02-.04-.03c.02,.01,.04,.02,.04,.03Z"/>
      <path class="cls-1" d="M48.93,29.33h0s.03,.01,.06,.01h-.07Z"/>
      <path class="cls-1" d="M49.08,29.41c-.08,0-.13-.05-.15-.07-.14-.02-.16,0-.11,.05,.15,.05,.14-.01,.25,.01Z"/>
      <path class="cls-1" d="M49.65,25.69l.06,.03s-.04-.02-.06-.03Z"/>
      <path class="cls-1" d="M40.04,33.29s-.02-.02-.03-.03c0,0,0,.02,.03,.03Z"/>
      <path class="cls-1" d="M49.33,26.2l.23,.08c-.1-.03-.17-.06-.23-.08Z"/>
      <path class="cls-1" d="M47.62,38.35l.09,.04s-.05-.02-.09-.04Z"/>
      <path class="cls-1" d="M45.98,40.04c-.07-.02-.13-.04-.18-.05h0s.18,.05,.18,.05Z"/>
      <path class="cls-1" d="M40.69,43.73l.09,.03-.16-.08s.03,.03,.07,.05Z"/>
      <path class="cls-1" d="M44.54,41.05s.05,.02,.08,.03c.09,0,.12-.05,.14-.13l-.28-.1,.07,.2Z"/>
      <path class="cls-1" d="M37.41,40.3l.62,.05c.12,.54-.53,.56-.19,1.11l-.12-.06c-.15,.01,1.13,.48-.65,.58l-.06-.02s.12,.06-.05,.06h.39c.12,.12,.38,.27,.39,.37-.07,0-.19-.04-.28-.07l.03,.24-.39-.06c.18,.13,.97,.37,.48,.39,.56,.12,.3,.2,.58,.27-.07-.01-.18-.03-.27-.04,.03,.12,.12,.37,.38,.51,0,0,1.27-.02,1.89,.07-.19,.1,.05,.06,.25,.09l-.13-.06c.16-.04,.5,.07,.61,.06-.03,0-.06-.02-.1-.03l.04,.02c-.06-.02-.1-.03-.14-.05-.07-.02-.13-.05-.1-.06l.03,.02c-.04-.05,.04-.1,.07-.12l.29,.1c-.52-.25,.97-.16,1.02-.24,.39,.03-.03-.23,.19-.27,.15-.14,.45,.05,.72,.05,.21-.05-.34-.09-.35-.14h.44c0,.09,.2,.11,.31,.13,.09-.1,.67-.1,.11-.33,.32-.06,.55,.01,.6-.04-.11-.01-.22,0-.34-.04,.27,.02-.05-.05-.12-.04-.22-.18,1.2-.14,.58-.37l.11,.04c-.46-.18-.92-.29-1.16-.44l.22,.03-.18-.13c.17,0,.28,.07,.34,.09-.18-.18,.12-.24,.23-.35l-1.32-.29c.33-.01,.99,0,.59-.17l.45,.08c.89,.05-.31-.27-.03-.28l.5,.04-.04,.11c.27-.03,.44-.02,.77-.01h-.01s-.04,0-.07-.02v-.02c-.23-.09-.38-.2-.34-.27,.1-.09-.22-.29,.33-.3l-.46-.2,.33-.04,.38,.13c-.06,.12,0,.41-.03,.58l.17,.06c.03-.1-.1-.27-.04-.32,.09,0,.51,.04,.74,.19l-.35-.18c.06-.34,.05-.35,.59-.55l-.2-.03c-.09-.1-.18-.21,.14-.13,.13-.18,.44-.32,.96-.29l-.44-.18s.74,.12,.12-.1l-.17-.16c.05-.05-.19-.17,.09-.15h0s0,0,0,0c.02,0,.04,0,.06,0h-.04c.24-.08-.4-.14-.09-.21,.33,.05-.55-.24-.43-.28l.67,.14c.41-.01-.22-.25-.16-.45,.26-.02,.82,.11,1.29,.34-.56-.28-.37-.16-.62-.37,.25,.06,.3,.09,.5,.19,.32,0-.2-.13-.16-.21-.45-.17-1.17-.43-1.19-.47l-.15-.02c-.22-.16-.3-.29-.04-.3l.23,.08-.08-.14,.3,.09-.05-.17h-.09c-.03-.05-.09-.19,.08-.21l.16,.06c.57-.01-.05-.37-.04-.6l.32,.14c.35,.04-.51-.19-.31-.22l.41,.13c-.51-.25,.15-.06,.36-.04l-.54-.15,.14-.06c.21-.05,.7,.15,.97,.26l-.4-.21,.48,.14c-.53-.23,.11-.02-.16-.21,.18,.05,.28,.11,.36,.1l-.62-.37,.27,.19-.69-.23c-.49-.27,.12-.11-.05-.24l.19,.11c-.13-.17,.16-.08,.34-.09-.13-.02-.34-.05-.41-.13-.03-.05,.25,.06,.34,.05-.46-.16-.68-.32-.44-.32,.06,.02,.13,.05,.17,.06-.07-.04-.18-.09-.06-.09l.51,.18-.47-.22c.15,0-.2-.18,.15-.06l.1,.06,.22-.27,.41,.13c-.55-.21,.27-.1-.44-.32,.4,.06-.2-.32,.59-.03,.13-.19-.6-.54-.13-.67,.7,.13,.56-.19,.69-.33-.18-.4-.37-.69-.48-1.08,1,.11-.17-.58,.43-.62l-.36-.18c.64,.05-.02-.39,.62-.4-.15-.1-.19-.14-.2-.16-.02,0-.1,0-.33-.08,.18,0,.01-.18,.48-.02l.04,.03c.47,.16-.17-.24,.26-.17l-.52-.13,.12-.08,.09,.06c-.98-.81,.7-.51-.2-1.26,.54,.23-.26-.18,.34,0,.8,.13-.1-.25-.27-.4-.03-.01-.06-.02-.11-.04l.12-.13c.74,.33-.6-.31,.02-.02,.7-.22,.29-.93,.7-1.32l-.2-.04c.08-.11-.12-.33,.23-.32,.34,0-.44-.35-.46-.4-.31-.2,.4-.08,.35-.05-.06-.13-.73-.45-.38-.5,.67,.15-.51-.6,.22-.37l-.06-.02c.58-.03-.25-.48,.29-.53,0,0,.05,.02,.1,.04l-2.09-1.1-2.49-.64-2.1-.26,.12,1.09-1.02,.52-.34,1.93,.51,.31c-1.08,.06-.12,.88-.94,1.05l.47,.16c0,.12-.3,.02-.39,.02-.23,1.06,.06,2.32-.83,3.06-.34-.01-.25,.32-.6,.28,.48,.49,.37,.8,.22,1.09l-.05-.03,.05,.17s-.1-.02-.13-.04c.37,.3-.13,.41-.36,.55l-.05-.03c-.45,1.11,.09,2.46-.94,3.38-.94,.27-.07,1.24-.91,1.63-.51-.04-.55,1.29-.36,1.48Z"/>
      <path class="cls-1" d="M37.46,42.31h0c-.2-.07-.13-.04,0,0Z"/>
      <polygon class="cls-1" points="43.72 41.59 43.71 41.6 44 41.66 43.72 41.59"/>
      <path class="cls-1" d="M43.36,43.28c.09-.05,.04-.07-.04-.09-.02,.02-.01,.05,.04,.09Z"/>
      <path class="cls-1" d="M37.65,43.04s.1,.06,.23,.08c0-.05-.01-.08-.01-.08-.05,0-.17,0-.22,0Z"/>
      <path class="cls-1" d="M40.4,43.79l.16,.07s-.09-.05-.16-.07Z"/>
    </g>
    <g>
      <path class="cls-1" d="M54.74,36.77s-.02-.03,0,0h0Z"/>
      <path class="cls-1" d="M56.04,53.45s0,0,0,.02c.1,0,.19,.02,.25,.02l-.26-.04Z"/>
      <path class="cls-1" d="M55.54,56.16s-.02,.01-.03,.02c.06,0,.12,0,.03-.02Z"/>
      <path class="cls-1" d="M54.87,47.29s-.02-.04-.05-.04c.02,.01,.04,.03,.05,.04Z"/>
      <path class="cls-1" d="M54.1,31.86s0,0,0,.01c.02,0,.03-.02,.06-.03l-.07,.02Z"/>
      <path class="cls-1" d="M54.27,31.91c-.07,.06-.14-.01-.16-.04-.13,.07-.14,.13-.08,.2,.15,0,.13-.13,.24-.16Z"/>
      <path class="cls-1" d="M53.53,22.92l.06,.03s-.04-.02-.06-.03Z"/>
      <path class="cls-1" d="M47.3,47.84s-.02-.03-.04-.04c0,.02,.01,.03,.04,.04Z"/>
      <path class="cls-1" d="M53.39,24.33h.24c-.1,0-.18,0-.24,0Z"/>
      <path class="cls-1" d="M56.3,53.49l.1,.02s-.06,0-.1-.02Z"/>
      <path class="cls-1" d="M55.49,58.65c-.07,0-.13,.01-.19,.02h0s.19-.02,.19-.02Z"/>
      <path class="cls-1" d="M53.6,71.25l.07-.07-.17,.07s.06,.01,.1,0Z"/>
      <path class="cls-1" d="M54.6,62.11s.05,0,.09,0c.08-.06,.09-.22,.07-.41h-.3s.15,.41,.15,.41Z"/>
      <path class="cls-1" d="M47.82,66.33l.57-.46c.38,1.29-.16,2.05,.6,3.25l-.15-.04c-.05,.11,.27,.12,.46,.4,.21,.3,.21,.79-.01,2.32l-.05,.03c.05,.08,.15,.02,.1,.27,.03-.2,.09-.39,.14-.57,.24,.18,.61,.26,.81,.55-.02,.1-.12,.18-.2,.24,.18,.25,.39,.5,.59,.73l-.13,.48c.38,.12,.86-.52,1.09,.37,.2-.61,.51,.03,.65-.25-.02,.08-.03,.22-.04,.33,.39,.28,1.21,.62,1.53,.45,0,0-.23-.48-.35-1.04-.13-.57-.11-1.19,.01-1.52,.2,.43,.13,.03,.21-.16l-.12,.08c-.08-.28,.22-.52,.22-.67-.02,.02-.05,.04-.07,.07l.05-.02s-.08,.07-.12,.08c-.06,.05-.11,.08-.14,.01h.04c-.11-.06-.17-.23-.18-.31l.25-.17c-.28,.09-.27-.28-.13-.66,.13-.38,.38-.76,.35-.85,.29-.31-.24-.38-.13-.69-.01-.41,.38-.31,.58-.55,.13-.27-.33,.13-.37,.04l.35-.37c.07,.16,.23,.03,.34-.02,0-.25,.49-.71-.12-.7,.24-.38,.48-.41,.49-.55-.1,.06-.19,.17-.31,.18,.25-.17-.07-.06-.13,0-.29-.19,.99-1.19,.33-1.19h.12c-.49-.03-.97,.09-1.25-.05l.21-.12-.22-.15c.15-.12,.29-.07,.35-.08-.24-.26,0-.65,.06-.98l-1.32,.42c.29-.29,.9-.83,.46-.86l.44-.19c.83-.6-.39-.37-.15-.6l.48-.3v.28c.24-.29,.39-.41,.7-.65h-.01s-.04,.03-.07,.03v-.04c-.26-.02-.44-.16-.43-.35,.05-.28-.32-.48,.18-.95l-.51-.09,.28-.35,.4-.02c0,.33,.18,.93,.22,1.35h.18c-.01-.25-.2-.52-.17-.69,.08-.08,.48-.31,.76-.17l-.4-.13c-.09-.83-.11-.83,.3-1.72l-.2,.08c-.13-.17-.25-.33,.07-.4,.04-.52,.27-1.07,.76-1.43l-.47-.05c.02-.11,.72-.31,.06-.33l-.22-.23c.03-.15-.24-.23,.02-.41h0s0,0,0,0c.02-.01,.03-.02,.05-.03h-.04c.19-.35-.42,.03-.17-.38,.33-.14-.6-.11-.51-.31l.67-.22c.37-.36-.31-.39-.33-.89,.23-.25,.8-.39,1.32-.25-.63-.19-.41-.08-.72-.36,.25-.06,.31-.03,.54,.03,.29-.27-.24-.15-.23-.34-.48-.04-1.25-.07-1.28-.13l-.15,.08c-.26-.19-.39-.41-.16-.66h.24s-.13-.25-.13-.25l.31-.03-.11-.36-.08,.05c-.04-.08-.16-.36,0-.52h.17c.52-.47-.2-.82-.28-1.34l.35,.06c.34-.19-.54-.03-.37-.25l.43-.03c-.57-.17,.11-.25,.32-.39l-.56,.08,.11-.25c.18-.28,.7-.19,1-.16l-.45-.17,.5-.05c-.58-.11,.09-.14-.23-.36,.19-.03,.3,.03,.37-.05l-.71-.36,.32,.22h-.73c-.56-.22,.07-.33-.14-.5l.22,.11c-.19-.28,.12-.3,.28-.47-.13,.05-.33,.14-.43,.03-.04-.08,.25-.06,.33-.14-.48,0-.75-.2-.53-.39,.07,0,.14,0,.18,.01-.08-.04-.21-.06-.09-.15l.54,.03-.52-.14c.14-.11-.25-.25,.11-.25l.11,.06,.1-.8,.43-.03c-.59-.06,.21-.44-.53-.39,.4-.16-.3-.58,.53-.52,.05-.52-.76-.78-.38-1.43,.7-.25,.45-.86,.51-1.27-.32-.79-.6-1.29-.85-2.1,.97-.52-.37-1.21,.17-1.76l-.4-.13c.61-.37-.16-.88,.43-1.39-.17-.12-.23-.18-.25-.21-.02,.02-.09,.06-.34,.08,.17-.14-.05-.42,.44-.42l.05,.03c.5,0-.24-.42,.18-.59l-.53,.1,.08-.27,.1,.07c-1.21-1.13,.47-1.69-.64-2.75,.58,.13-.31-.21,.32-.24,.79-.29-.18-.5-.4-.72-.03,0-.07,0-.12-.01l.07-.39c.81,.22-.67-.27,.02-.07,.58-1.04-.06-2.36,.2-3.55l-.21,.06c.03-.3-.22-.67,.1-.9,.33-.23-.53-.49-.57-.58-.36-.24,.35-.48,.31-.37-.1-.27-.84-.51-.53-.88,.68-.14-.68-1,.09-1.02h-.06c.54-.49-.39-.92,.09-1.44,0,0,.06,0,.11,.03l-2.34-1.02-2.56,.32-2.07,.93,.48,2.46-.79,1.98,.36,4.78,.59,.33c-.99,.96,.2,2.14-.5,3.17h.5c.04,.29-.27,.28-.36,.35,.17,2.65,.92,5.37,.37,7.78-.32,.24-.1,.94-.45,1.13,.63,.76,.66,1.58,.62,2.36l-.06-.03,.11,.36s-.1,.02-.14,.01c.46,.4,.04,1.06-.12,1.58l-.06-.03c.02,2.95,1.07,5.65,.51,8.6-.75,1.4,.45,2.93-.15,4.52-.48,.34,.05,3.38,.32,3.82Z"/>
      <path class="cls-1" d="M50.09,72.31v-.02c-.19,.1-.11,.09,0,.02Z"/>
      <polygon class="cls-1" points="54.09 64.01 54.09 64.03 54.38 63.93 54.09 64.01"/>
      <path class="cls-1" d="M54.65,67.79c.03-.16-.02-.16-.1-.12,0,.06,.02,.1,.1,.12Z"/>
      <path class="cls-1" d="M52.08,74.15c.13,.13,.15-.01,.17-.18-.15-.09-.24-.17-.24-.17,.03,.1,.03,.25,.07,.36Z"/>
      <path class="cls-1" d="M53.64,71.7l.15-.09c-.07-.02-.12,.03-.15,.09Z"/>
    </g>
    <g>
      <path class="cls-1" d="M55.49,51.47s0,.04,0,0h0Z"/>
      <path class="cls-1" d="M60.52,32.4s0-.01,0-.02c-.09-.04-.17-.08-.23-.11l.23,.13Z"/>
      <path class="cls-1" d="M62.05,29.46s.02,0,.03-.01c-.06-.02-.11-.04-.03,.01Z"/>
      <path class="cls-1" d="M59.37,39.78s0,.05,.03,.07c-.02-.02-.03-.04-.03-.07Z"/>
      <path class="cls-1" d="M53.92,56.93s0,0,0-.02c-.02,0-.04,0-.07,0h.07Z"/>
      <path class="cls-1" d="M53.79,56.8c.09-.03,.12,.07,.13,.11,.15-.02,.19-.08,.16-.18-.14-.06-.18,.08-.29,.07Z"/>
      <path class="cls-1" d="M49.52,66.08l-.04-.06s.02,.04,.04,.06Z"/>
      <path class="cls-1" d="M66.74,41.57s.01,.04,.02,.06c.01-.02,0-.04-.02-.06Z"/>
      <path class="cls-1" d="M50.51,64.81l-.2-.14c.08,.07,.14,.11,.2,.14Z"/>
      <path class="cls-1" d="M60.29,32.27l-.09-.05s.05,.03,.09,.05Z"/>
      <path class="cls-1" d="M63.11,26.62c.07,.02,.13,.03,.18,.04h0s-.19-.04-.19-.04Z"/>
      <path class="cls-1" d="M72.42,14.05l-.09-.04,.13,.13s-.01-.07-.04-.1Z"/>
      <path class="cls-1" d="M65.46,23.02s-.05-.03-.08-.04c-.1,.04-.18,.21-.25,.44l.28,.11,.05-.51Z"/>
      <path class="cls-1" d="M73.58,21.45l-.71,.15c.22-1.36,1.06-1.66,1.07-2.89l.09,.11c.2-.08-1.01-.77,1.27-1.68l.05,.03c.02-.06-.09-.11,.11-.15l-.48,.11c-.05-.23-.23-.5-.15-.74,.08-.02,.2,.02,.29,.06l.19-.59h.43c-.1-.25-.87-.56-.23-.79-.59-.1-.19-.38-.47-.47,.07,.01,.19,0,.3,.02,.08-.3,.2-.88,.01-1.14,0,0-1.6,.47-2.3,.48,.34-.31,0-.14-.22-.15l.11,.09c-.25,.17-.57,0-.72,.07,.03,.01,.06,.03,.09,.04l-.04-.04c.06,.02,.1,.05,.12,.07,.07,.03,.12,.07,.07,.13l-.03-.03c0,.12-.14,.26-.2,.33l-.27-.14c.43,.43-1.41,.78-1.53,1.02-.45,.08-.16,.59-.48,.81-.31,.45-.51,.06-.86,.2-.31,.23,.35,.08,.31,.22l-.55,.2c.06-.23-.15-.19-.28-.2-.19,.3-.93,.59-.42,.93-.46,.32-.68,.23-.8,.4,.13-.02,.28-.1,.39-.06-.32,.07,.02,.11,.11,.06,.11,.36-1.58,.98-1,1.29l-.11-.05c.43,.25,.91,.33,1.09,.62l-.25,.04,.12,.27c-.2,.07-.3-.04-.35-.07,.09,.39-.33,.72-.54,1.07l1.41,.09c-.41,.19-1.22,.53-.84,.75l-.5,.03c-1.03,.33,.19,.57-.14,.73l-.57,.15,.12-.31c-.35,.23-.54,.3-.93,.45h.01s.05,0,.08,0v.05c.21,.12,.31,.34,.22,.56-.18,.3,.08,.66-.6,1l.43,.29-.42,.28-.38-.13c.16-.37,.26-1.12,.42-1.61l-.17-.07c-.1,.29-.05,.67-.15,.85-.11,.07-.59,.17-.78-.09l.31,.31c-.3,.97-.27,.99-1.03,1.85l.22-.02c.05,.24,.09,.47-.23,.42-.26,.58-.7,1.13-1.31,1.37l.42,.23c-.07,.12-.81,.1-.2,.36l.12,.33c-.09,.16,.14,.35-.18,.47h0s0,0,0,0c-.02,0-.04,.01-.06,.02h.04c-.32,.34,.41,.13,0,.5-.36,.05,.52,.33,.36,.52l-.71,.03c-.49,.29,.14,.55-.03,1.13-.31,.21-.91,.18-1.34-.15,.52,.43,.35,.23,.54,.65-.26-.02-.3-.07-.5-.21-.38,.21,.17,.25,.09,.47,.44,.2,1.15,.49,1.16,.57l.17-.04c.18,.31,.22,.6-.09,.81l-.23-.08,.03,.33-.3-.07-.03,.44,.1-.03c.01,.11,.02,.46-.19,.6l-.16-.05c-.66,.37-.11,.99-.23,1.61l-.31-.18c-.39,.11,.5,.2,.26,.4l-.42-.11c.48,.37-.19,.25-.44,.34l.56,.08-.19,.25c-.27,.26-.74,0-1.01-.13l.37,.33-.49-.1c.51,.31-.13,.13,.09,.48-.19-.03-.27-.13-.37-.06l.55,.64-.22-.35,.69,.23c.45,.43-.18,.36-.05,.61l-.17-.2c.08,.37-.23,.31-.43,.44,.15-.02,.36-.05,.42,.11,.01,.11-.26-.02-.36,.05,.46,.15,.64,.46,.36,.61-.07-.02-.13-.04-.17-.07,.06,.07,.17,.14,.03,.2l-.5-.2,.44,.32c-.18,.08,.15,.36-.2,.24l-.08-.1-.39,.87-.42-.11c.54,.25-.36,.43,.36,.61-.44,.06,.08,.75-.69,.42-.24,.57,.45,1.13-.16,1.72-.76,.05-.75,.81-.96,1.24,0,.97,.1,1.64,.01,2.61-1.12,.23-.12,1.45-.85,1.86l.32,.29c-.72,.19-.19,1.02-.97,1.35,.11,.19,.14,.27,.14,.31,.03-.02,.11-.03,.35,.04-.22,.09-.13,.48-.59,.28l-.03-.06c-.46-.19,.05,.54-.42,.56l.53,.09-.19,.26-.07-.11c.66,1.68-1.15,1.62-.63,3.16-.47-.38,.19,.34-.4,.11-.86-.02-.06,.6,.03,.93,.03,.01,.06,.03,.1,.06l-.24,.39c-.63-.57,.49,.57-.05,.06-1.03,.82-1.13,2.44-1.97,3.53l.21,.04c-.2,.28-.18,.77-.6,.84-.41,.07,.19,.74,.17,.85,.17,.42-.57,.31-.48,.22-.06,.31,.44,.93-.04,1.14-.64-.21-.03,1.33-.69,.94l.05,.04c-.75,.17-.25,1.09-.97,1.31,0,0-.04-.04-.07-.09,.44,.76,.86,1.53,1.28,2.32l2.31,1.15c.77,.08,1.56,.14,2.35,.2,.43-.97,.91-1.91,1.27-2.9l1.91-1.79c.47-.91,.82-1.85,1.22-2.77,.39-.93,.79-1.85,1.11-2.79l-.37-.62c1.38-.69,.89-2.51,1.97-3.42l-.46-.2c.09-.34,.37-.21,.49-.26,1.06-3.12,1.38-6.47,2.83-9.04,.4-.17,.45-1.03,.84-1.14-.32-1.06-.04-2.01,.27-2.88l.04,.05,.03-.44s.1,0,.13,.03c-.29-.59,.34-1.21,.68-1.74l.04,.05c1.04-3.33,1.03-6.68,2.71-9.7,1.25-1.24,.75-3.33,2-4.77,.54-.16,1.5-3.58,1.4-3.96Z"/>
      <path class="cls-1" d="M75.13,16.45h0c.19,.11,.13,.05,0,0Z"/>
      <polygon class="cls-1" points="66.83 21.1 66.84 21.08 66.53 21.06 66.83 21.1"/>
      <path class="cls-1" d="M68.63,16.37c-.15,.18-.11,.21-.02,.22,.05-.07,.06-.14,.02-.22Z"/>
      <path class="cls-1" d="M75.57,14.74c.07-.09-.06-.11-.22-.12-.03,.11-.06,.19-.06,.19,.07-.03,.2-.03,.27-.07Z"/>
      <path class="cls-1" d="M72.85,13.81l-.13-.11c0,.08,.06,.11,.13,.11Z"/>
    </g>
    <rect class="cls-2" width="100" height="100"/>
  </g>
</svg>