<?xml version="1.0" encoding="UTF-8" standalone="no"?>
<!DOCTYPE svg PUBLIC "-//W3C//DTD SVG 1.1//EN" "http://www.w3.org/Graphics/SVG/1.1/DTD/svg11.dtd">
<svg width="100%" height="100%" viewBox="0 0 100 100" version="1.1" xmlns="http://www.w3.org/2000/svg" xmlns:xlink="http://www.w3.org/1999/xlink" xml:space="preserve" xmlns:serif="http://www.serif.com/" style="fill-rule:evenodd;clip-rule:evenodd;stroke-linejoin:round;stroke-miterlimit:2;">
    <g id="whatever">
        <g>
            <path d="M74.63,41.38C74.63,41.38 74.62,41.4 74.63,41.38Z" style="fill:white;fill-rule:nonzero;"/>
            <path d="M81.53,39.75C81.52,39.65 81.51,39.56 81.5,39.5L81.52,39.75L81.53,39.75Z" style="fill:white;fill-rule:nonzero;"/>
            <path d="M82.75,40.19C82.75,40.19 82.75,40.21 82.76,40.22C82.75,40.16 82.74,40.1 82.75,40.19Z" style="fill:white;fill-rule:nonzero;"/>
            <path d="M79.08,41.06C79.08,41.06 79.07,41.08 79.07,41.11C79.07,41.09 79.07,41.07 79.08,41.06Z" style="fill:white;fill-rule:nonzero;"/>
            <path d="M72.59,42.1C72.59,42.1 72.59,42.06 72.57,42.03L72.57,42.1L72.59,42.1Z" style="fill:white;fill-rule:nonzero;"/>
            <path d="M72.6,41.92C72.63,41.99 72.6,42.06 72.6,42.08C72.64,42.21 72.67,42.22 72.69,42.16C72.68,42.01 72.63,42.03 72.6,41.92Z" style="fill:white;fill-rule:nonzero;"/>
            <path d="M68.82,42.77L68.82,42.71L68.82,42.77Z" style="fill:white;fill-rule:nonzero;"/>
            <path d="M80.22,48.55C80.22,48.55 80.22,48.57 80.21,48.59C80.21,48.59 80.22,48.58 80.22,48.55Z" style="fill:white;fill-rule:nonzero;"/>
            <path d="M69.43,42.9L69.43,42.66L69.43,42.9Z" style="fill:white;fill-rule:nonzero;"/>
            <path d="M81.51,39.5L81.51,39.4L81.51,39.5Z" style="fill:white;fill-rule:nonzero;"/>
            <path d="M83.82,40.16C83.84,40.23 83.85,40.29 83.86,40.34C83.87,40.39 83.82,40.16 83.82,40.16Z" style="fill:white;fill-rule:nonzero;"/>
            <path d="M89.86,42.93L89.84,42.84L89.86,43.01L89.86,42.93Z" style="fill:white;fill-rule:nonzero;"/>
            <path d="M85.43,40.95C85.43,40.95 85.43,40.9 85.42,40.87C85.38,40.79 85.31,40.79 85.23,40.81L85.28,41.11L85.43,40.96L85.43,40.95Z" style="fill:white;fill-rule:nonzero;"/>
            <path d="M88.39,47.51L88.11,46.95C88.57,46.57 88.93,47.12 89.27,46.55L89.27,46.68C89.37,46.8 89.12,45.47 90.17,46.94L90.17,47C90.17,47 90.17,46.87 90.26,47.01L90.06,46.67C90.1,46.51 90.1,46.21 90.19,46.15C90.22,46.21 90.26,46.33 90.28,46.42L90.5,46.27L90.66,46.64C90.69,46.42 90.47,45.62 90.77,46.02C90.57,45.48 90.79,45.66 90.7,45.38C90.73,45.45 90.77,45.54 90.81,45.64C90.91,45.55 91.09,45.34 91.08,45.05C91.08,45.05 90.36,43.98 90.11,43.41C90.3,43.53 90.14,43.33 90.06,43.15L90.08,43.29C89.95,43.18 89.88,42.82 89.81,42.74C89.81,42.77 89.83,42.8 89.83,42.84L89.83,42.79C89.84,42.85 89.85,42.89 89.85,42.93C89.87,43.01 89.88,43.07 89.85,43.05L89.85,43.01C89.82,43.07 89.74,43.03 89.7,43.01L89.63,42.72C89.68,43.3 88.97,41.97 88.87,41.97C88.7,41.62 88.68,42.11 88.52,41.95C88.31,41.9 88.33,41.54 88.19,41.31C88.03,41.15 88.29,41.65 88.24,41.68L88.01,41.3C88.08,41.25 88.01,41.08 87.96,40.97C87.83,40.95 87.53,40.44 87.61,41.04C87.39,40.79 87.34,40.56 87.26,40.54C87.31,40.64 87.37,40.73 87.4,40.85C87.28,40.6 87.38,40.92 87.42,40.97C87.37,41.25 86.68,40 86.8,40.65L86.78,40.53C86.85,41.02 86.99,41.48 86.97,41.76L86.88,41.55L86.85,41.77C86.77,41.62 86.77,41.49 86.76,41.43C86.69,41.68 86.48,41.44 86.33,41.4L86.74,42.69C86.56,42.41 86.23,41.83 86.29,42.26L86.13,41.83C85.73,41.03 86.04,42.23 85.89,41.99L85.68,41.53L85.8,41.53C85.64,41.29 85.56,41.15 85.41,40.85C85.26,40.55 85.43,40.9 85.44,40.93L85.43,40.93C85.46,41.19 85.43,41.36 85.35,41.36C85.22,41.31 85.19,41.69 84.91,41.21L84.95,41.71L84.76,41.44L84.69,41.05C84.83,41.05 85.06,40.85 85.23,40.8L85.2,40.62C85.1,40.64 85.01,40.84 84.93,40.81C84.88,40.74 84.72,40.34 84.73,40.07L84.73,40.47C84.4,40.58 84.4,40.6 83.96,40.22L84.03,40.41C83.98,40.54 83.93,40.66 83.85,40.35C83.62,40.32 83.35,40.11 83.13,39.64L83.18,40.11C83.13,40.09 82.94,39.4 83.03,40.06L82.97,40.28C82.9,40.26 82.91,40.53 82.79,40.28C82.67,40.03 82.79,40.28 82.79,40.28C82.79,40.26 82.78,40.25 82.77,40.23L82.77,40.27C82.6,40.09 82.85,40.69 82.64,40.45C82.53,40.13 82.68,41.05 82.58,40.96L82.39,40.31C82.18,39.95 82.27,40.62 82.06,40.66C81.92,40.44 81.78,39.88 81.77,39.36C81.77,39.99 81.79,39.77 81.72,40.08C81.66,39.83 81.67,39.78 81.66,39.55C81.51,39.27 81.63,39.79 81.55,39.79C81.6,40.27 81.69,41.03 81.67,41.06L81.72,41.2C81.67,41.47 81.6,41.6 81.46,41.38L81.43,41.14L81.34,41.28L81.29,40.98L81.15,41.1L81.18,41.18C81.18,41.18 81.05,41.35 80.96,41.2L80.94,41.03C80.67,40.53 80.62,41.25 80.41,41.33L80.39,40.98C80.26,40.65 80.45,41.52 80.33,41.36L80.26,40.94C80.26,41.51 80.14,40.84 80.06,40.63L80.17,41.18L80.05,41.08C79.91,40.91 79.88,40.39 79.85,40.09L79.85,40.54L79.75,40.05C79.78,40.63 79.68,39.97 79.63,40.29C79.6,40.1 79.61,39.99 79.56,39.92L79.5,40.64L79.55,40.32L79.64,41.04C79.61,41.6 79.49,40.98 79.45,41.19L79.47,40.97C79.38,41.16 79.33,40.86 79.24,40.71C79.28,40.84 79.34,41.04 79.3,41.14C79.27,41.18 79.25,40.89 79.2,40.81C79.26,41.29 79.2,41.56 79.1,41.34C79.1,41.27 79.09,41.21 79.08,41.16C79.08,41.24 79.08,41.37 79.03,41.25L78.98,40.71L78.98,41.23C78.92,41.09 78.91,41.49 78.86,41.12L78.86,41.01L78.52,40.93L78.46,40.5C78.5,41.09 78.25,40.3 78.36,41.03C78.25,40.64 78.15,41.34 78.08,40.51C77.85,40.47 77.83,41.29 77.52,40.92C77.34,40.23 77.11,40.49 76.93,40.43C76.63,40.76 76.45,41.05 76.13,41.32C75.82,40.36 75.65,41.72 75.37,41.18L75.35,41.58C75.14,40.97 74.99,41.76 74.72,41.17C74.69,41.35 74.66,41.4 74.65,41.42C74.66,41.44 74.68,41.51 74.71,41.76C74.63,41.59 74.53,41.82 74.49,41.33L74.49,41.28C74.46,40.78 74.34,41.53 74.24,41.11L74.33,41.64L74.21,41.56L74.23,41.46C73.85,42.68 73.48,41.02 73.11,42.14C73.12,41.56 73.05,42.45 72.99,41.82C72.81,41.03 72.79,42.01 72.71,42.23L72.71,42.35L72.54,42.29C72.57,41.48 72.47,42.96 72.51,42.28C72.03,41.72 71.51,42.37 70.99,42.13L71.03,42.33C70.9,42.3 70.76,42.56 70.64,42.24C70.52,41.92 70.46,42.78 70.43,42.81C70.35,43.17 70.2,42.47 70.25,42.51C70.14,42.62 70.08,43.35 69.9,43.05C69.81,42.37 69.51,43.74 69.46,42.98L69.46,43.04C69.23,42.51 69.09,43.44 68.84,42.96L68.84,42.85L68.5,45.2L68.75,47.76L69.26,49.82L70.33,49.31L71.26,50.07L73.38,49.64L73.48,49.05C73.99,50.02 74.42,48.82 74.94,49.49L74.9,48.99C75.02,48.95 75.04,49.26 75.08,49.34C76.26,49.12 77.39,48.32 78.52,48.81C78.66,49.12 78.95,48.89 79.07,49.23C79.34,48.58 79.7,48.54 80.05,48.56L80.05,48.62L80.19,48.5C80.2,48.54 80.21,48.6 80.21,48.64C80.33,48.18 80.68,48.57 80.93,48.72L80.93,48.78C82.25,48.68 83.31,47.57 84.71,48.04C85.45,48.74 85.95,47.51 86.76,48.04C86.98,48.5 88.3,47.87 88.38,47.61L88.39,47.51Z" style="fill:white;fill-rule:nonzero;"/>
            <path d="M90.29,46.43C90.34,46.64 90.33,46.56 90.29,46.43Z" style="fill:white;fill-rule:nonzero;"/>
            <path d="M86.33,41.39L86.34,41.4L86.25,41.11L86.33,41.39Z" style="fill:white;fill-rule:nonzero;"/>
            <path d="M88.04,40.87C87.95,40.82 87.96,40.87 87.98,40.95C88.01,40.95 88.03,40.94 88.04,40.87Z" style="fill:white;fill-rule:nonzero;"/>
            <path d="M90.87,45.89C90.87,45.89 90.87,45.78 90.82,45.65C90.78,45.68 90.75,45.7 90.75,45.7C90.78,45.74 90.83,45.85 90.87,45.89Z" style="fill:white;fill-rule:nonzero;"/>
            <path d="M90.07,43.15L90.05,42.98C90.05,42.98 90.05,43.09 90.07,43.15Z" style="fill:white;fill-rule:nonzero;"/>
        </g>
        <g>
            <path d="M35.2,54.28C35.2,54.28 35.22,54.26 35.2,54.28Z" style="fill:white;fill-rule:nonzero;"/>
            <path d="M25.48,56.75C25.5,56.85 25.52,56.94 25.53,57L25.49,56.75L25.48,56.75Z" style="fill:white;fill-rule:nonzero;"/>
            <path d="M23.52,56.65C23.52,56.65 23.51,56.64 23.5,56.63C23.52,56.69 23.53,56.75 23.52,56.65Z" style="fill:white;fill-rule:nonzero;"/>
            <path d="M28.82,54.97C28.82,54.97 28.84,54.95 28.84,54.92C28.84,54.94 28.84,54.96 28.82,54.97Z" style="fill:white;fill-rule:nonzero;"/>
            <path d="M38.17,53.56C38.17,53.58 38.18,53.59 38.19,53.62L38.19,53.55L38.17,53.56Z" style="fill:white;fill-rule:nonzero;"/>
            <path d="M38.15,53.73C38.11,53.66 38.15,53.59 38.17,53.57C38.12,53.44 38.08,53.43 38.05,53.49C38.05,53.64 38.13,53.62 38.15,53.73Z" style="fill:white;fill-rule:nonzero;"/>
            <path d="M43.69,53.17L43.67,53.23C43.67,53.23 43.68,53.19 43.69,53.17Z" style="fill:white;fill-rule:nonzero;"/>
            <path d="M27.17,47.57C27.17,47.57 27.19,47.55 27.19,47.53C27.17,47.53 27.17,47.55 27.17,47.57Z" style="fill:white;fill-rule:nonzero;"/>
            <path d="M42.82,52.97L42.8,53.21C42.81,53.11 42.82,53.03 42.82,52.97Z" style="fill:white;fill-rule:nonzero;"/>
            <path d="M25.52,57L25.52,57.1L25.52,57Z" style="fill:white;fill-rule:nonzero;"/>
            <path d="M21.72,56.89C21.7,56.82 21.69,56.76 21.67,56.71C21.65,56.66 21.72,56.89 21.72,56.89Z" style="fill:white;fill-rule:nonzero;"/>
            <path d="M12.98,53.77L12.98,53.87L13.02,53.7C13,53.72 12.99,53.74 12.98,53.78L12.98,53.77Z" style="fill:white;fill-rule:nonzero;"/>
            <path d="M19.19,56.23L19.19,56.32C19.24,56.4 19.35,56.4 19.48,56.37L19.45,56.07L19.19,56.23Z" style="fill:white;fill-rule:nonzero;"/>
            <path d="M16.13,49.5L16.38,50.09C15.72,50.42 15.37,49.83 14.81,50.34L14.84,50.21C14.76,50.07 14.73,51.44 13.76,49.79L13.76,49.73C13.76,49.73 13.73,49.86 13.66,49.7L13.82,50.07C13.72,50.22 13.64,50.51 13.51,50.55C13.48,50.48 13.47,50.36 13.47,50.26L13.15,50.36L13.06,49.97C12.96,50.18 12.99,51.01 12.74,50.54C12.83,51.11 12.6,50.88 12.63,51.17C12.61,51.1 12.59,50.99 12.57,50.89C12.41,50.95 12.11,51.1 12.02,51.39C12.02,51.39 12.61,52.62 12.78,53.23C12.55,53.07 12.72,53.3 12.76,53.49L12.78,53.35C12.92,53.49 12.91,53.85 12.98,53.95L12.98,53.85L12.98,53.9C12.96,53.84 12.97,53.79 12.98,53.76C12.98,53.68 12.98,53.62 13.03,53.64L13.03,53.68C13.08,53.63 13.18,53.68 13.23,53.71L13.23,54.01C13.33,53.44 13.95,54.89 14.1,54.9C14.25,55.28 14.43,54.8 14.62,54.99C14.92,55.08 14.78,55.43 14.94,55.68C15.13,55.86 14.89,55.33 14.96,55.31L15.2,55.72C15.07,55.76 15.15,55.94 15.18,56.06C15.38,56.1 15.71,56.64 15.74,56.04C16.02,56.32 16.03,56.55 16.15,56.58C16.1,56.47 16.02,56.38 16.02,56.26C16.14,56.52 16.07,56.19 16.02,56.14C16.16,55.87 16.94,57.18 16.93,56.52L16.93,56.64C16.93,56.15 16.84,55.67 16.93,55.39L17.02,55.6L17.11,55.38C17.2,55.53 17.17,55.67 17.18,55.73C17.34,55.49 17.62,55.73 17.85,55.78L17.49,54.47C17.7,54.76 18.1,55.35 18.09,54.92L18.25,55.36C18.72,56.17 18.47,54.96 18.64,55.2L18.89,55.66L18.7,55.68C18.92,55.9 19.01,56.05 19.21,56.35C19.41,56.65 19.19,56.3 19.18,56.27L19.2,56.25C19.2,56 19.27,55.82 19.4,55.82C19.6,55.86 19.69,55.48 20.07,55.95L20.07,55.44L20.34,55.7L20.41,56.09C20.18,56.1 19.79,56.32 19.5,56.38L19.52,56.56C19.69,56.54 19.86,56.33 19.98,56.35C20.05,56.42 20.25,56.81 20.19,57.09L20.24,56.69C20.81,56.55 20.8,56.54 21.49,56.87L21.4,56.68C21.5,56.54 21.59,56.41 21.69,56.72C22.07,56.72 22.5,56.88 22.86,57.32L22.81,56.85C22.89,56.85 23.18,57.52 23.06,56.87L23.18,56.63C23.3,56.63 23.3,56.36 23.48,56.59C23.66,56.82 23.48,56.59 23.48,56.59C23.49,56.6 23.5,56.62 23.52,56.64L23.52,56.6C23.8,56.74 23.4,56.19 23.74,56.38C23.91,56.68 23.68,55.78 23.84,55.85L24.15,56.47C24.49,56.78 24.35,56.11 24.67,56.02C24.89,56.21 25.12,56.74 25.16,57.26C25.13,56.62 25.11,56.85 25.21,56.52C25.31,56.76 25.3,56.81 25.33,57.05C25.57,57.29 25.37,56.8 25.49,56.78C25.39,56.31 25.22,55.56 25.25,55.52L25.16,55.39C25.21,55.11 25.32,54.95 25.52,55.15L25.58,55.38L25.7,55.22L25.79,55.51L25.98,55.36L25.93,55.29C25.97,55.24 26.1,55.09 26.24,55.22L26.28,55.39C26.67,55.84 26.71,55.11 27,54.98L27.04,55.33C27.23,55.64 26.94,54.8 27.11,54.94L27.22,55.36C27.2,54.78 27.39,55.44 27.51,55.63L27.35,55.09L27.52,55.17C27.72,55.32 27.77,55.84 27.82,56.13L27.82,55.67L27.96,56.15C27.91,55.57 28.05,56.22 28.12,55.89C28.17,56.07 28.16,56.18 28.22,56.25L28.3,55.52L28.23,55.85L28.09,55.14C28.12,54.57 28.3,55.18 28.36,54.96L28.33,55.19C28.46,54.98 28.53,55.28 28.66,55.42C28.6,55.29 28.52,55.11 28.57,55C28.61,54.95 28.65,55.24 28.71,55.31C28.62,54.83 28.7,54.56 28.85,54.76C28.86,54.83 28.87,54.89 28.87,54.94C28.88,54.86 28.87,54.73 28.94,54.84L29.02,55.37L29.02,54.85C29.11,54.98 29.12,54.58 29.18,54.94L29.16,55.05L29.66,55.09L29.74,55.51C29.68,54.92 30.04,55.69 29.89,54.96C30.05,55.34 30.19,54.62 30.28,55.45C30.6,55.46 30.64,54.64 31.08,54.98C31.32,55.66 31.66,55.38 31.91,55.42C32.34,55.06 32.62,54.75 33.09,54.47C33.5,55.41 33.79,54.05 34.18,54.57L34.23,54.17C34.51,54.77 34.76,53.98 35.11,54.56C35.17,54.38 35.2,54.33 35.22,54.31C35.2,54.29 35.18,54.22 35.15,53.97C35.25,54.14 35.41,53.9 35.44,54.4L35.42,54.45C35.45,54.95 35.66,54.2 35.79,54.62L35.7,54.09L35.87,54.17L35.83,54.28C36.45,53.05 36.88,54.71 37.48,53.6C37.42,54.19 37.6,53.29 37.64,53.92C37.84,54.71 37.94,53.73 38.07,53.52L38.07,53.4L38.31,53.47C38.19,54.28 38.46,52.8 38.35,53.49C39,54.07 39.8,53.44 40.53,53.72L40.5,53.51C40.68,53.55 40.92,53.3 41.05,53.63C41.19,53.96 41.36,53.11 41.42,53.08C41.58,52.73 41.71,53.44 41.64,53.4C41.81,53.3 41.98,52.57 42.2,52.89C42.26,53.57 42.85,52.24 42.83,53.01L42.83,52.95C43.11,53.5 43.42,52.59 43.72,53.1C43.72,53.1 43.71,53.16 43.7,53.21L44.49,50.92L44.45,48.35L43.95,46.24L42.26,46.63L40.93,45.79C39.83,45.88 38.74,45.99 37.65,46.12L37.44,46.71C36.75,45.73 35.99,46.94 35.26,46.27L35.28,46.77C35.09,46.81 35.08,46.51 35.02,46.42C33.21,46.67 31.47,47.55 29.77,47.19C29.56,46.89 29.12,47.16 28.94,46.84C28.51,47.53 27.96,47.62 27.43,47.67L27.43,47.61L27.21,47.75C27.19,47.71 27.18,47.65 27.18,47.62C26.99,48.11 26.46,47.77 26.07,47.68L26.07,47.62C25.06,47.8 24.09,48.27 23.23,48.66C22.36,49.05 21.65,49.32 20.78,49.15C19.9,48.51 19.2,49.77 18.22,49.22C18,48.76 16.29,49.31 16.13,49.54L16.13,49.5Z" style="fill:white;fill-rule:nonzero;"/>
            <path d="M13.48,50.26C13.48,50.05 13.47,50.13 13.48,50.26Z" style="fill:white;fill-rule:nonzero;"/>
            <path d="M17.85,55.78L17.83,55.77L17.92,56.06L17.85,55.78Z" style="fill:white;fill-rule:nonzero;"/>
            <path d="M15.05,56.14C15.18,56.2 15.18,56.15 15.16,56.07C15.11,56.06 15.07,56.07 15.05,56.14Z" style="fill:white;fill-rule:nonzero;"/>
            <path d="M12.57,50.65C12.51,50.63 12.53,50.76 12.57,50.9C12.63,50.88 12.67,50.87 12.67,50.87C12.64,50.82 12.61,50.71 12.58,50.66L12.57,50.65Z" style="fill:white;fill-rule:nonzero;"/>
            <path d="M12.76,53.5L12.74,53.67C12.74,53.67 12.78,53.57 12.76,53.5Z" style="fill:white;fill-rule:nonzero;"/>
        </g>
        <g>
            <path d="M36.03,68.53C36.03,68.53 36.03,68.51 36.03,68.53Z" style="fill:white;fill-rule:nonzero;"/>
            <path d="M33,78.6C33.09,78.65 33.17,78.69 33.23,78.72L33,78.6Z" style="fill:white;fill-rule:nonzero;"/>
            <path d="M31.83,79.96L31.8,79.96C31.86,79.98 31.91,80 31.83,79.96Z" style="fill:white;fill-rule:nonzero;"/>
            <path d="M33.51,74.63C33.51,74.63 33.51,74.6 33.47,74.59C33.49,74.61 33.5,74.62 33.51,74.63Z" style="fill:white;fill-rule:nonzero;"/>
            <path d="M36.61,65.45L36.68,65.45L36.61,65.45Z" style="fill:white;fill-rule:nonzero;"/>
            <path d="M36.76,65.54C36.68,65.54 36.63,65.48 36.62,65.46C36.48,65.46 36.45,65.49 36.5,65.55C36.65,65.6 36.65,65.52 36.77,65.55L36.76,65.54Z" style="fill:white;fill-rule:nonzero;"/>
            <path d="M38.19,60.06L38.24,60.1C38.24,60.1 38.21,60.08 38.19,60.06Z" style="fill:white;fill-rule:nonzero;"/>
            <path d="M26.36,72.11C26.36,72.11 26.35,72.09 26.33,72.07C26.33,72.08 26.33,72.09 26.36,72.11Z" style="fill:white;fill-rule:nonzero;"/>
            <path d="M37.74,60.84L37.97,60.93C37.88,60.89 37.81,60.86 37.74,60.84Z" style="fill:white;fill-rule:nonzero;"/>
            <path d="M33.23,78.72L33.31,78.77C33.31,78.77 33.26,78.74 33.23,78.72Z" style="fill:white;fill-rule:nonzero;"/>
            <path d="M31.13,81.36C31.06,81.34 31,81.32 30.95,81.3C30.9,81.28 31.13,81.36 31.13,81.36Z" style="fill:white;fill-rule:nonzero;"/>
            <path d="M24.73,87.27L24.82,87.3L24.67,87.21C24.67,87.21 24.7,87.25 24.73,87.27Z" style="fill:white;fill-rule:nonzero;"/>
            <path d="M29.38,82.97C29.38,82.97 29.43,82.99 29.46,83.01C29.55,83.01 29.6,82.92 29.63,82.8L29.35,82.68L29.38,82.97Z" style="fill:white;fill-rule:nonzero;"/>
            <path d="M22.03,82.59L22.67,82.59C22.67,83.38 21.99,83.47 22.22,84.23L22.11,84.15C21.95,84.18 23.19,84.73 21.3,85.05L21.24,85.03C21.24,85.03 21.35,85.11 21.18,85.12L21.59,85.1C21.69,85.25 21.93,85.44 21.92,85.59C21.85,85.59 21.73,85.56 21.64,85.52L21.61,85.87L21.21,85.82C21.37,85.99 22.15,86.26 21.63,86.34C22.2,86.45 21.9,86.6 22.18,86.67C22.11,86.67 22,86.65 21.9,86.64C21.9,86.82 21.94,87.17 22.19,87.35C22.19,87.35 23.54,87.19 24.17,87.26C23.94,87.42 24.21,87.34 24.41,87.37L24.28,87.3C24.46,87.22 24.79,87.35 24.91,87.33C24.88,87.33 24.85,87.31 24.82,87.3L24.86,87.33C24.8,87.31 24.76,87.29 24.73,87.27C24.66,87.24 24.6,87.21 24.64,87.19L24.67,87.21C24.64,87.14 24.73,87.06 24.77,87.03L25.05,87.14C24.55,86.83 26.11,86.81 26.18,86.69C26.58,86.69 26.2,86.36 26.44,86.27C26.63,86.05 26.9,86.3 27.19,86.27C27.43,86.18 26.85,86.17 26.86,86.1L27.32,86.06C27.32,86.19 27.5,86.19 27.62,86.21C27.73,86.06 28.35,86 27.81,85.72C28.16,85.6 28.39,85.69 28.45,85.6C28.34,85.6 28.22,85.62 28.1,85.58C28.38,85.58 28.06,85.51 27.99,85.53C27.8,85.3 29.28,85.21 28.68,84.94L28.79,84.98C28.34,84.77 27.88,84.64 27.66,84.45L27.89,84.47L27.73,84.3C27.9,84.3 28.01,84.37 28.07,84.4C27.92,84.16 28.25,84.04 28.39,83.87L27.06,83.58C27.41,83.53 28.11,83.47 27.72,83.28L28.18,83.35C29.1,83.34 27.92,82.99 28.21,82.95L28.73,82.97L28.66,83.13C28.95,83.06 29.13,83.05 29.47,83.04L29.46,83.04C29.46,83.04 29.41,83.04 29.39,83.02L29.39,82.99C29.17,82.88 29.04,82.74 29.1,82.63C29.23,82.49 28.94,82.23 29.52,82.16L29.08,81.91L29.43,81.82L29.8,81.96C29.71,82.14 29.71,82.56 29.64,82.81L29.81,82.88C29.86,82.73 29.76,82.5 29.84,82.42C29.93,82.4 30.37,82.43 30.58,82.62L30.25,82.39C30.39,81.89 30.38,81.88 30.99,81.53L30.79,81.5C30.72,81.36 30.65,81.21 30.96,81.3C31.14,81.02 31.49,80.79 32.04,80.78L31.62,80.57C31.67,80.51 32.37,80.67 31.77,80.41L31.63,80.2C31.7,80.12 31.47,79.97 31.76,79.97C32.05,79.97 31.76,79.97 31.76,79.97L31.82,79.97L31.78,79.97C32.05,79.83 31.39,79.81 31.72,79.68C32.06,79.73 31.19,79.38 31.33,79.31L32,79.44C32.44,79.38 31.82,79.1 31.93,78.81C32.21,78.76 32.77,78.89 33.21,79.17C32.68,78.82 32.85,78.97 32.64,78.69C32.89,78.76 32.93,78.79 33.13,78.91C33.47,78.87 32.95,78.73 33.01,78.63C32.57,78.43 31.88,78.11 31.86,78.07L31.7,78.07C31.51,77.85 31.44,77.67 31.72,77.62L31.94,77.71L31.88,77.52L32.17,77.62L32.17,77.37L32.07,77.37C32.05,77.31 32.01,77.1 32.2,77.07L32.36,77.13C32.96,77.06 32.39,76.59 32.45,76.26L32.76,76.43C33.12,76.45 32.27,76.21 32.48,76.15L32.88,76.3C32.39,75.99 33.05,76.2 33.27,76.2L32.73,76.04L32.9,75.94C33.13,75.85 33.6,76.1 33.87,76.22L33.5,75.95L33.97,76.11C33.46,75.83 34.09,76.06 33.85,75.82C34.03,75.88 34.12,75.95 34.21,75.93L33.64,75.45L33.88,75.7L33.21,75.43C32.75,75.09 33.36,75.26 33.21,75.09L33.39,75.24C33.29,75.01 33.58,75.11 33.77,75.07C33.63,75.05 33.43,75.02 33.36,74.92C33.34,74.86 33.61,74.98 33.7,74.97C33.25,74.79 33.06,74.58 33.31,74.55C33.37,74.58 33.44,74.6 33.47,74.62C33.41,74.56 33.3,74.51 33.42,74.5L33.91,74.72L33.47,74.45C33.63,74.45 33.3,74.21 33.64,74.35L33.73,74.42L34.03,74L34.44,74.15C33.9,73.9 34.75,73.97 34.05,73.73C34.46,73.78 33.91,73.28 34.68,73.63C34.86,73.35 34.17,72.9 34.68,72.67C35.39,72.79 35.32,72.34 35.48,72.13C35.38,71.56 35.24,71.16 35.21,70.6C36.24,70.66 35.16,69.76 35.8,69.65L35.46,69.43C36.12,69.44 35.53,68.86 36.21,68.78C36.08,68.65 36.04,68.59 36.03,68.57C36.01,68.57 35.93,68.57 35.69,68.49C35.89,68.47 35.74,68.23 36.21,68.41L36.25,68.45C36.71,68.63 36.13,68.12 36.57,68.18L36.05,68.05L36.19,67.92L36.27,68C35.42,66.91 37.12,67.19 36.34,66.18C36.85,66.46 36.1,65.95 36.7,66.16C37.51,66.27 36.65,65.8 36.5,65.6C36.47,65.59 36.44,65.58 36.39,65.55L36.55,65.35C37.25,65.76 35.99,64.96 36.58,65.32C37.37,64.93 37.09,63.93 37.61,63.33L37.4,63.29C37.5,63.13 37.35,62.82 37.71,62.8C38.07,62.78 37.33,62.33 37.32,62.27C37.04,62 37.76,62.11 37.7,62.16C37.67,61.97 37.03,61.57 37.41,61.46C38.08,61.62 37,60.64 37.73,60.89L37.67,60.87C38.28,60.77 37.52,60.2 38.09,60.07C38.09,60.07 38.14,60.1 38.19,60.12L36.23,58.73L33.75,58.04L31.59,57.87L31.48,59.44L30.29,60.3L29.51,63.15L29.98,63.55C28.83,63.75 29.65,64.84 28.76,65.18L29.22,65.36C29.19,65.54 28.9,65.42 28.8,65.43C28.33,67 28.35,68.81 27.24,69.97C26.88,69.99 26.91,70.46 26.54,70.44C26.94,71.1 26.76,71.58 26.53,72L26.49,71.96L26.49,72.21C26.49,72.21 26.4,72.18 26.37,72.16C26.69,72.55 26.14,72.78 25.86,73L25.82,72.96C25.09,74.63 25.36,76.54 24.08,77.98C23.03,78.47 23.73,79.79 22.76,80.45C22.24,80.44 21.9,82.39 22.05,82.64L22.03,82.59Z" style="fill:white;fill-rule:nonzero;"/>
            <path d="M21.64,85.52C21.45,85.44 21.51,85.47 21.64,85.52Z" style="fill:white;fill-rule:nonzero;"/>
            <path d="M28.4,83.85L28.39,83.86L28.68,83.92L28.4,83.85Z" style="fill:white;fill-rule:nonzero;"/>
            <path d="M27.65,86.34C27.75,86.25 27.71,86.23 27.62,86.22C27.59,86.25 27.6,86.3 27.65,86.34Z" style="fill:white;fill-rule:nonzero;"/>
            <path d="M21.68,86.55C21.64,86.6 21.77,86.63 21.91,86.64L21.91,86.53C21.85,86.54 21.74,86.53 21.68,86.55Z" style="fill:white;fill-rule:nonzero;"/>
            <path d="M24.41,87.38L24.56,87.46C24.56,87.46 24.48,87.39 24.41,87.38Z" style="fill:white;fill-rule:nonzero;"/>
        </g>
        <g>
            <path d="M48.81,31.44C48.81,31.44 48.8,31.42 48.81,31.44Z" style="fill:white;fill-rule:nonzero;"/>
            <path d="M47.38,38.25C47.47,38.29 47.55,38.32 47.62,38.35L47.38,38.25Z" style="fill:white;fill-rule:nonzero;"/>
            <path d="M46.45,39.11L46.42,39.11C46.48,39.13 46.53,39.15 46.45,39.11Z" style="fill:white;fill-rule:nonzero;"/>
            <path d="M47.28,35.52C47.28,35.52 47.27,35.5 47.24,35.49C47.26,35.5 47.28,35.51 47.28,35.52Z" style="fill:white;fill-rule:nonzero;"/>
            <path d="M48.93,29.33C48.93,29.33 48.96,29.34 48.99,29.34L48.92,29.34L48.93,29.33Z" style="fill:white;fill-rule:nonzero;"/>
            <path d="M49.08,29.41C49,29.41 48.95,29.36 48.93,29.34C48.79,29.32 48.77,29.34 48.82,29.39C48.97,29.44 48.96,29.38 49.07,29.4L49.08,29.41Z" style="fill:white;fill-rule:nonzero;"/>
            <path d="M49.65,25.69L49.71,25.72C49.71,25.72 49.67,25.7 49.65,25.69Z" style="fill:white;fill-rule:nonzero;"/>
            <path d="M40.04,33.29C40.04,33.29 40.02,33.27 40.01,33.26C40.01,33.26 40.01,33.28 40.04,33.29Z" style="fill:white;fill-rule:nonzero;"/>
            <path d="M49.33,26.2L49.56,26.28C49.46,26.25 49.39,26.22 49.33,26.2Z" style="fill:white;fill-rule:nonzero;"/>
            <path d="M47.62,38.35L47.71,38.39C47.71,38.39 47.66,38.37 47.62,38.35Z" style="fill:white;fill-rule:nonzero;"/>
            <path d="M45.98,40.04C45.91,40.02 45.85,40 45.8,39.99C45.75,39.98 45.98,40.04 45.98,40.04Z" style="fill:white;fill-rule:nonzero;"/>
            <path d="M40.69,43.73L40.78,43.76L40.62,43.68C40.62,43.68 40.65,43.71 40.69,43.73Z" style="fill:white;fill-rule:nonzero;"/>
            <path d="M44.54,41.05C44.54,41.05 44.59,41.07 44.62,41.08C44.71,41.08 44.74,41.03 44.76,40.95L44.48,40.85L44.55,41.05L44.54,41.05Z" style="fill:white;fill-rule:nonzero;"/>
            <path d="M37.41,40.3L38.03,40.35C38.15,40.89 37.5,40.91 37.84,41.46L37.72,41.4C37.57,41.41 38.85,41.88 37.07,41.98L37.01,41.96C37.01,41.96 37.13,42.02 36.96,42.02L37.35,42.02C37.47,42.14 37.73,42.29 37.74,42.39C37.67,42.39 37.55,42.35 37.46,42.32L37.49,42.56L37.1,42.5C37.28,42.63 38.07,42.87 37.58,42.89C38.14,43.01 37.88,43.09 38.16,43.16C38.09,43.15 37.98,43.13 37.89,43.12C37.92,43.24 38.01,43.49 38.27,43.63C38.27,43.63 39.54,43.61 40.16,43.7C39.97,43.8 40.21,43.76 40.41,43.79L40.28,43.73C40.44,43.69 40.78,43.8 40.89,43.79C40.86,43.79 40.83,43.77 40.79,43.76L40.83,43.78C40.77,43.76 40.73,43.75 40.69,43.73C40.62,43.71 40.56,43.68 40.59,43.67L40.62,43.69C40.58,43.64 40.66,43.59 40.69,43.57L40.98,43.67C40.46,43.42 41.95,43.51 42,43.43C42.39,43.46 41.97,43.2 42.19,43.16C42.34,43.02 42.64,43.21 42.91,43.21C43.12,43.16 42.57,43.12 42.56,43.07L43,43.07C43,43.16 43.2,43.18 43.31,43.2C43.4,43.1 43.98,43.1 43.42,42.87C43.74,42.81 43.97,42.88 44.02,42.83C43.91,42.82 43.8,42.83 43.68,42.79C43.95,42.81 43.63,42.74 43.56,42.75C43.34,42.57 44.76,42.61 44.14,42.38L44.25,42.42C43.79,42.24 43.33,42.13 43.09,41.98L43.31,42.01L43.13,41.88C43.3,41.88 43.41,41.95 43.47,41.97C43.29,41.79 43.59,41.73 43.7,41.62L42.38,41.33C42.71,41.32 43.37,41.33 42.97,41.16L43.42,41.24C44.31,41.29 43.11,40.97 43.39,40.96L43.89,41L43.85,41.11C44.12,41.08 44.29,41.09 44.62,41.1L44.61,41.1C44.61,41.1 44.57,41.1 44.54,41.08L44.54,41.06C44.31,40.97 44.16,40.86 44.2,40.79C44.3,40.7 43.98,40.5 44.53,40.49L44.07,40.29L44.4,40.25L44.78,40.38C44.72,40.5 44.78,40.79 44.75,40.96L44.92,41.02C44.95,40.92 44.82,40.75 44.88,40.7C44.97,40.7 45.39,40.74 45.62,40.89L45.27,40.71C45.33,40.37 45.32,40.36 45.86,40.16L45.66,40.13C45.57,40.03 45.48,39.92 45.8,40C45.93,39.82 46.24,39.68 46.76,39.71L46.32,39.53C46.32,39.53 47.06,39.65 46.44,39.43L46.27,39.27C46.32,39.22 46.08,39.1 46.36,39.12C46.64,39.14 46.36,39.12 46.36,39.12L46.42,39.12L46.38,39.12C46.62,39.04 45.98,38.98 46.29,38.91C46.62,38.96 45.74,38.67 45.86,38.63L46.53,38.77C46.94,38.76 46.31,38.52 46.37,38.32C46.63,38.3 47.19,38.43 47.66,38.66C47.1,38.38 47.29,38.5 47.04,38.29C47.29,38.35 47.34,38.38 47.54,38.48C47.86,38.48 47.34,38.35 47.38,38.27C46.93,38.1 46.21,37.84 46.19,37.8L46.04,37.78C45.82,37.62 45.74,37.49 46,37.48L46.23,37.56L46.15,37.42L46.45,37.51L46.4,37.34L46.31,37.34C46.28,37.29 46.22,37.15 46.39,37.13L46.55,37.19C47.12,37.18 46.5,36.82 46.51,36.59L46.83,36.73C47.18,36.77 46.32,36.54 46.52,36.51L46.93,36.64C46.42,36.39 47.08,36.58 47.29,36.6L46.75,36.45L46.89,36.39C47.1,36.34 47.59,36.54 47.86,36.65L47.46,36.44L47.94,36.58C47.41,36.35 48.05,36.56 47.78,36.37C47.96,36.42 48.06,36.48 48.14,36.47L47.52,36.1L47.79,36.29L47.1,36.06C46.61,35.79 47.22,35.95 47.05,35.82L47.24,35.93C47.11,35.76 47.4,35.85 47.58,35.84C47.45,35.82 47.24,35.79 47.17,35.71C47.14,35.66 47.42,35.77 47.51,35.76C47.05,35.6 46.83,35.44 47.07,35.44C47.13,35.46 47.2,35.49 47.24,35.5C47.17,35.46 47.06,35.41 47.18,35.41L47.69,35.59L47.22,35.37C47.37,35.37 47.02,35.19 47.37,35.31L47.47,35.37L47.69,35.1L48.1,35.23C47.55,35.02 48.37,35.13 47.66,34.91C48.06,34.97 47.46,34.59 48.25,34.88C48.38,34.69 47.65,34.34 48.12,34.21C48.82,34.34 48.68,34.02 48.81,33.88C48.63,33.48 48.44,33.19 48.33,32.8C49.33,32.91 48.16,32.22 48.76,32.18L48.4,32C49.04,32.05 48.38,31.61 49.02,31.6C48.87,31.5 48.83,31.46 48.82,31.44C48.8,31.44 48.72,31.44 48.49,31.36C48.67,31.36 48.5,31.18 48.97,31.34L49.01,31.37C49.48,31.53 48.84,31.13 49.27,31.2L48.75,31.07L48.87,30.99L48.96,31.05C47.98,30.24 49.66,30.54 48.76,29.79C49.3,30.02 48.5,29.61 49.1,29.79C49.9,29.92 49,29.54 48.83,29.39C48.8,29.38 48.77,29.37 48.72,29.35L48.84,29.22C49.58,29.55 48.24,28.91 48.86,29.2C49.56,28.98 49.15,28.27 49.56,27.88L49.36,27.84C49.44,27.73 49.24,27.51 49.59,27.52C49.93,27.52 49.15,27.17 49.13,27.12C48.82,26.92 49.53,27.04 49.48,27.07C49.42,26.94 48.75,26.62 49.1,26.57C49.77,26.72 48.59,25.97 49.32,26.2L49.26,26.18C49.84,26.15 49.01,25.7 49.55,25.65C49.55,25.65 49.6,25.67 49.65,25.69L47.56,24.59L45.07,23.95L42.97,23.69L43.09,24.78L42.07,25.3L41.73,27.23L42.24,27.54C41.16,27.6 42.12,28.42 41.3,28.59L41.77,28.75C41.77,28.87 41.47,28.77 41.38,28.77C41.15,29.83 41.44,31.09 40.55,31.83C40.21,31.82 40.3,32.15 39.95,32.11C40.43,32.6 40.32,32.91 40.17,33.2L40.12,33.17L40.17,33.34C40.17,33.34 40.07,33.32 40.04,33.3C40.41,33.6 39.91,33.71 39.68,33.85L39.63,33.82C39.18,34.93 39.72,36.28 38.69,37.2C37.75,37.47 38.62,38.44 37.78,38.83C37.27,38.79 37.23,40.12 37.42,40.31L37.41,40.3Z" style="fill:white;fill-rule:nonzero;"/>
            <path d="M37.46,42.31C37.26,42.24 37.33,42.27 37.46,42.31Z" style="fill:white;fill-rule:nonzero;"/>
            <path d="M43.72,41.59L43.71,41.6L44,41.66L43.72,41.59Z" style="fill:white;fill-rule:nonzero;"/>
            <path d="M43.36,43.28C43.45,43.23 43.4,43.21 43.32,43.19C43.3,43.21 43.31,43.24 43.36,43.28Z" style="fill:white;fill-rule:nonzero;"/>
            <path d="M37.65,43.04C37.65,43.04 37.75,43.1 37.88,43.12C37.88,43.07 37.87,43.04 37.87,43.04L37.65,43.04Z" style="fill:white;fill-rule:nonzero;"/>
            <path d="M40.4,43.79L40.56,43.86C40.56,43.86 40.47,43.81 40.4,43.79Z" style="fill:white;fill-rule:nonzero;"/>
        </g>
        <g>
            <path d="M54.74,36.77C54.74,36.77 54.72,36.74 54.74,36.77Z" style="fill:white;fill-rule:nonzero;"/>
            <path d="M56.04,53.45L56.04,53.47C56.14,53.47 56.23,53.49 56.29,53.49L56.03,53.45L56.04,53.45Z" style="fill:white;fill-rule:nonzero;"/>
            <path d="M55.54,56.16C55.54,56.16 55.52,56.17 55.51,56.18C55.57,56.18 55.63,56.18 55.54,56.16Z" style="fill:white;fill-rule:nonzero;"/>
            <path d="M54.87,47.29C54.87,47.29 54.85,47.25 54.82,47.25C54.84,47.26 54.86,47.28 54.87,47.29Z" style="fill:white;fill-rule:nonzero;"/>
            <path d="M54.1,31.86L54.1,31.87C54.12,31.87 54.13,31.85 54.16,31.84L54.09,31.86L54.1,31.86Z" style="fill:white;fill-rule:nonzero;"/>
            <path d="M54.27,31.91C54.2,31.97 54.13,31.9 54.11,31.87C53.98,31.94 53.97,32 54.03,32.07C54.18,32.07 54.16,31.94 54.27,31.91Z" style="fill:white;fill-rule:nonzero;"/>
            <path d="M53.53,22.92L53.59,22.95C53.59,22.95 53.55,22.93 53.53,22.92Z" style="fill:white;fill-rule:nonzero;"/>
            <path d="M47.3,47.84C47.3,47.84 47.28,47.81 47.26,47.8C47.26,47.82 47.27,47.83 47.3,47.84Z" style="fill:white;fill-rule:nonzero;"/>
            <path d="M53.39,24.33L53.63,24.33L53.39,24.33Z" style="fill:white;fill-rule:nonzero;"/>
            <path d="M56.3,53.49L56.4,53.51C56.4,53.51 56.34,53.51 56.3,53.49Z" style="fill:white;fill-rule:nonzero;"/>
            <path d="M55.49,58.65C55.42,58.65 55.36,58.66 55.3,58.67C55.24,58.68 55.49,58.65 55.49,58.65Z" style="fill:white;fill-rule:nonzero;"/>
            <path d="M53.6,71.25L53.67,71.18L53.5,71.25C53.5,71.25 53.56,71.26 53.6,71.25Z" style="fill:white;fill-rule:nonzero;"/>
            <path d="M54.6,62.11L54.69,62.11C54.77,62.05 54.78,61.89 54.76,61.7L54.46,61.7L54.61,62.11L54.6,62.11Z" style="fill:white;fill-rule:nonzero;"/>
            <path d="M47.82,66.33L48.39,65.87C48.77,67.16 48.23,67.92 48.99,69.12L48.84,69.08C48.79,69.19 49.11,69.2 49.3,69.48C49.51,69.78 49.51,70.27 49.29,71.8L49.24,71.83C49.29,71.91 49.39,71.85 49.34,72.1C49.37,71.9 49.43,71.71 49.48,71.53C49.72,71.71 50.09,71.79 50.29,72.08C50.27,72.18 50.17,72.26 50.09,72.32C50.27,72.57 50.48,72.82 50.68,73.05L50.55,73.53C50.93,73.65 51.41,73.01 51.64,73.9C51.84,73.29 52.15,73.93 52.29,73.65C52.27,73.73 52.26,73.87 52.25,73.98C52.64,74.26 53.46,74.6 53.78,74.43C53.78,74.43 53.55,73.95 53.43,73.39C53.3,72.82 53.32,72.2 53.44,71.87C53.64,72.3 53.57,71.9 53.65,71.71L53.53,71.79C53.45,71.51 53.75,71.27 53.75,71.12C53.73,71.14 53.7,71.16 53.68,71.19L53.73,71.17C53.73,71.17 53.65,71.24 53.61,71.25C53.55,71.3 53.5,71.33 53.47,71.26L53.51,71.26C53.4,71.2 53.34,71.03 53.33,70.95L53.58,70.78C53.3,70.87 53.31,70.5 53.45,70.12C53.58,69.74 53.83,69.36 53.8,69.27C54.09,68.96 53.56,68.89 53.67,68.58C53.66,68.17 54.05,68.27 54.25,68.03C54.38,67.76 53.92,68.16 53.88,68.07L54.23,67.7C54.3,67.86 54.46,67.73 54.57,67.68C54.57,67.43 55.06,66.97 54.45,66.98C54.69,66.6 54.93,66.57 54.94,66.43C54.84,66.49 54.75,66.6 54.63,66.61C54.88,66.44 54.56,66.55 54.5,66.61C54.21,66.42 55.49,65.42 54.83,65.42L54.95,65.42C54.46,65.39 53.98,65.51 53.7,65.37L53.91,65.25L53.69,65.1C53.84,64.98 53.98,65.03 54.04,65.02C53.8,64.76 54.04,64.37 54.1,64.04L52.78,64.46C53.07,64.17 53.68,63.63 53.24,63.6L53.68,63.41C54.51,62.81 53.29,63.04 53.53,62.81L54.01,62.51L54.01,62.79C54.25,62.5 54.4,62.38 54.71,62.14L54.7,62.14C54.7,62.14 54.66,62.17 54.63,62.17L54.63,62.13C54.37,62.11 54.19,61.97 54.2,61.78C54.25,61.5 53.88,61.3 54.38,60.83L53.87,60.74L54.15,60.39L54.55,60.37C54.55,60.7 54.73,61.3 54.77,61.72L54.95,61.72C54.94,61.47 54.75,61.2 54.78,61.03C54.86,60.95 55.26,60.72 55.54,60.86L55.14,60.73C55.05,59.9 55.03,59.9 55.44,59.01L55.24,59.09C55.11,58.92 54.99,58.76 55.31,58.69C55.35,58.17 55.58,57.62 56.07,57.26L55.6,57.21C55.62,57.1 56.32,56.9 55.66,56.88L55.44,56.65C55.47,56.5 55.2,56.42 55.46,56.24C55.72,56.06 55.46,56.24 55.46,56.24C55.48,56.23 55.49,56.22 55.51,56.21L55.47,56.21C55.66,55.86 55.05,56.24 55.3,55.83C55.63,55.69 54.7,55.72 54.79,55.52L55.46,55.3C55.83,54.94 55.15,54.91 55.13,54.41C55.36,54.16 55.93,54.02 56.45,54.16C55.82,53.97 56.04,54.08 55.73,53.8C55.98,53.74 56.04,53.77 56.27,53.83C56.56,53.56 56.03,53.68 56.04,53.49C55.56,53.45 54.79,53.42 54.76,53.36L54.61,53.44C54.35,53.25 54.22,53.03 54.45,52.78L54.69,52.78L54.56,52.53L54.87,52.5L54.76,52.14L54.68,52.19C54.64,52.11 54.52,51.83 54.68,51.67L54.85,51.67C55.37,51.2 54.65,50.85 54.57,50.33L54.92,50.39C55.26,50.2 54.38,50.36 54.55,50.14L54.98,50.11C54.41,49.94 55.09,49.86 55.3,49.72L54.74,49.8L54.85,49.55C55.03,49.27 55.55,49.36 55.85,49.39L55.4,49.22L55.9,49.17C55.32,49.06 55.99,49.03 55.67,48.81C55.86,48.78 55.97,48.84 56.04,48.76L55.33,48.4L55.65,48.62L54.92,48.62C54.36,48.4 54.99,48.29 54.78,48.12L55,48.23C54.81,47.95 55.12,47.93 55.28,47.76C55.15,47.81 54.95,47.9 54.85,47.79C54.81,47.71 55.1,47.73 55.18,47.65C54.7,47.65 54.43,47.45 54.65,47.26C54.72,47.26 54.79,47.26 54.83,47.27C54.75,47.23 54.62,47.21 54.74,47.12L55.28,47.15L54.76,47.01C54.9,46.9 54.51,46.76 54.87,46.76L54.98,46.82L55.08,46.02L55.51,45.99C54.92,45.93 55.72,45.55 54.98,45.6C55.38,45.44 54.68,45.02 55.51,45.08C55.56,44.56 54.75,44.3 55.13,43.65C55.83,43.4 55.58,42.79 55.64,42.38C55.32,41.59 55.04,41.09 54.79,40.28C55.76,39.76 54.42,39.07 54.96,38.52L54.56,38.39C55.17,38.02 54.4,37.51 54.99,37C54.82,36.88 54.76,36.82 54.74,36.79C54.72,36.81 54.65,36.85 54.4,36.87C54.57,36.73 54.35,36.45 54.84,36.45L54.89,36.48C55.39,36.48 54.65,36.06 55.07,35.89L54.54,35.99L54.62,35.72L54.72,35.79C53.51,34.66 55.19,34.1 54.08,33.04C54.66,33.17 53.77,32.83 54.4,32.8C55.19,32.51 54.22,32.3 54,32.08C53.97,32.08 53.93,32.08 53.88,32.07L53.95,31.68C54.76,31.9 53.28,31.41 53.97,31.61C54.55,30.57 53.91,29.25 54.17,28.06L53.96,28.12C53.99,27.82 53.74,27.45 54.06,27.22C54.39,26.99 53.53,26.73 53.49,26.64C53.13,26.4 53.84,26.16 53.8,26.27C53.7,26 52.96,25.76 53.27,25.39C53.95,25.25 52.59,24.39 53.36,24.37L53.3,24.37C53.84,23.88 52.91,23.45 53.39,22.93C53.39,22.93 53.45,22.93 53.5,22.96L51.16,21.94L48.6,22.26L46.53,23.19L47.01,25.65L46.22,27.63L46.58,32.41L47.17,32.74C46.18,33.7 47.37,34.88 46.67,35.91L47.17,35.91C47.21,36.2 46.9,36.19 46.81,36.26C46.98,38.91 47.73,41.63 47.18,44.04C46.86,44.28 47.08,44.98 46.73,45.17C47.36,45.93 47.39,46.75 47.35,47.53L47.29,47.5L47.4,47.86C47.4,47.86 47.3,47.88 47.26,47.87C47.72,48.27 47.3,48.93 47.14,49.45L47.08,49.42C47.1,52.37 48.15,55.07 47.59,58.02C46.84,59.42 48.04,60.95 47.44,62.54C46.96,62.88 47.49,65.92 47.76,66.36L47.82,66.33Z" style="fill:white;fill-rule:nonzero;"/>
            <path d="M50.09,72.31L50.09,72.29C49.9,72.39 49.98,72.38 50.09,72.31Z" style="fill:white;fill-rule:nonzero;"/>
            <path d="M54.09,64.01L54.09,64.03L54.38,63.93L54.09,64.01Z" style="fill:white;fill-rule:nonzero;"/>
            <path d="M54.65,67.79C54.68,67.63 54.63,67.63 54.55,67.67C54.55,67.73 54.57,67.77 54.65,67.79Z" style="fill:white;fill-rule:nonzero;"/>
            <path d="M52.08,74.15C52.21,74.28 52.23,74.14 52.25,73.97C52.1,73.88 52.01,73.8 52.01,73.8C52.04,73.9 52.04,74.05 52.08,74.16L52.08,74.15Z" style="fill:white;fill-rule:nonzero;"/>
            <path d="M53.64,71.7L53.79,71.61C53.72,71.59 53.67,71.64 53.64,71.7Z" style="fill:white;fill-rule:nonzero;"/>
        </g>
        <g>
            <path d="M55.49,51.47C55.49,51.47 55.49,51.51 55.49,51.47Z" style="fill:white;fill-rule:nonzero;"/>
            <path d="M60.52,32.4L60.52,32.38C60.43,32.34 60.35,32.3 60.29,32.27L60.52,32.4Z" style="fill:white;fill-rule:nonzero;"/>
            <path d="M62.05,29.46C62.05,29.46 62.07,29.46 62.08,29.45C62.02,29.43 61.97,29.41 62.05,29.46Z" style="fill:white;fill-rule:nonzero;"/>
            <path d="M59.37,39.78C59.37,39.78 59.37,39.83 59.4,39.85C59.38,39.83 59.37,39.81 59.37,39.78Z" style="fill:white;fill-rule:nonzero;"/>
            <path d="M53.92,56.93L53.92,56.91L53.85,56.91L53.92,56.91L53.92,56.93Z" style="fill:white;fill-rule:nonzero;"/>
            <path d="M53.79,56.8C53.88,56.77 53.91,56.87 53.92,56.91C54.07,56.89 54.11,56.83 54.08,56.73C53.94,56.67 53.9,56.81 53.79,56.8Z" style="fill:white;fill-rule:nonzero;"/>
            <path d="M49.52,66.08L49.48,66.02C49.48,66.02 49.5,66.06 49.52,66.08Z" style="fill:white;fill-rule:nonzero;"/>
            <path d="M66.74,41.57C66.74,41.57 66.75,41.61 66.76,41.63C66.77,41.61 66.76,41.59 66.74,41.57Z" style="fill:white;fill-rule:nonzero;"/>
            <path d="M50.51,64.81L50.31,64.67C50.39,64.74 50.45,64.78 50.51,64.81Z" style="fill:white;fill-rule:nonzero;"/>
            <path d="M60.29,32.27L60.2,32.22C60.2,32.22 60.25,32.25 60.29,32.27Z" style="fill:white;fill-rule:nonzero;"/>
            <path d="M63.11,26.62C63.18,26.64 63.24,26.65 63.29,26.66C63.34,26.67 63.1,26.62 63.1,26.62L63.11,26.62Z" style="fill:white;fill-rule:nonzero;"/>
            <path d="M72.42,14.05L72.33,14.01L72.46,14.14C72.46,14.14 72.45,14.07 72.42,14.04L72.42,14.05Z" style="fill:white;fill-rule:nonzero;"/>
            <path d="M65.46,23.02C65.46,23.02 65.41,22.99 65.38,22.98C65.28,23.02 65.2,23.19 65.13,23.42L65.41,23.53L65.46,23.02Z" style="fill:white;fill-rule:nonzero;"/>
            <path d="M73.58,21.45L72.87,21.6C73.09,20.24 73.93,19.94 73.94,18.71L74.03,18.82C74.23,18.74 73.02,18.05 75.3,17.14L75.35,17.17C75.37,17.11 75.26,17.06 75.46,17.02L74.98,17.13C74.93,16.9 74.75,16.63 74.83,16.39C74.91,16.37 75.03,16.41 75.12,16.45L75.31,15.86L75.74,15.86C75.64,15.61 74.87,15.3 75.51,15.07C74.92,14.97 75.32,14.69 75.04,14.6C75.11,14.61 75.23,14.6 75.34,14.62C75.42,14.32 75.54,13.74 75.35,13.48C75.35,13.48 73.75,13.95 73.05,13.96C73.39,13.65 73.05,13.82 72.83,13.81L72.94,13.9C72.69,14.07 72.37,13.9 72.22,13.97C72.25,13.98 72.28,14 72.31,14.01L72.27,13.97C72.33,13.99 72.37,14.02 72.39,14.04C72.46,14.07 72.51,14.11 72.46,14.17L72.43,14.14C72.43,14.26 72.29,14.4 72.23,14.47L71.96,14.33C72.39,14.76 70.55,15.11 70.43,15.35C69.98,15.43 70.27,15.94 69.95,16.16C69.64,16.61 69.44,16.22 69.09,16.36C68.78,16.59 69.44,16.44 69.4,16.58L68.85,16.78C68.91,16.55 68.7,16.59 68.57,16.58C68.38,16.88 67.64,17.17 68.15,17.51C67.69,17.83 67.47,17.74 67.35,17.91C67.48,17.89 67.63,17.81 67.74,17.85C67.42,17.92 67.76,17.96 67.85,17.91C67.96,18.27 66.27,18.89 66.85,19.2L66.74,19.15C67.17,19.4 67.65,19.48 67.83,19.77L67.58,19.81L67.7,20.08C67.5,20.15 67.4,20.04 67.35,20.01C67.44,20.4 67.02,20.73 66.81,21.08L68.22,21.17C67.81,21.36 67,21.7 67.38,21.92L66.88,21.95C65.85,22.28 67.07,22.52 66.74,22.68L66.17,22.83L66.29,22.52C65.94,22.75 65.75,22.82 65.36,22.97L65.45,22.97L65.45,23.02C65.66,23.14 65.76,23.36 65.67,23.58C65.49,23.88 65.75,24.24 65.07,24.58L65.5,24.87L65.08,25.15L64.7,25.02C64.86,24.65 64.96,23.9 65.12,23.41L64.95,23.34C64.85,23.63 64.9,24.01 64.8,24.19C64.69,24.26 64.21,24.36 64.02,24.1L64.33,24.41C64.03,25.38 64.06,25.4 63.3,26.26L63.52,26.24C63.57,26.48 63.61,26.71 63.29,26.66C63.03,27.24 62.59,27.79 61.98,28.03L62.4,28.26C62.33,28.38 61.59,28.36 62.2,28.62L62.32,28.95C62.23,29.11 62.46,29.3 62.14,29.42C61.82,29.54 62.14,29.42 62.14,29.42C62.12,29.42 62.1,29.43 62.08,29.44L62.12,29.44C61.8,29.78 62.53,29.57 62.12,29.94C61.76,29.99 62.64,30.27 62.48,30.46L61.77,30.49C61.28,30.78 61.91,31.04 61.74,31.62C61.43,31.83 60.83,31.8 60.4,31.47C60.92,31.9 60.75,31.7 60.94,32.12C60.68,32.1 60.64,32.05 60.44,31.91C60.06,32.12 60.61,32.16 60.53,32.38C60.97,32.58 61.68,32.87 61.69,32.95L61.86,32.91C62.04,33.22 62.08,33.51 61.77,33.72L61.54,33.64L61.57,33.97L61.27,33.9L61.24,34.34L61.34,34.31C61.35,34.42 61.36,34.77 61.15,34.91L60.99,34.86C60.33,35.23 60.88,35.85 60.76,36.47L60.45,36.29C60.06,36.4 60.95,36.49 60.71,36.69L60.29,36.58C60.77,36.95 60.1,36.83 59.85,36.92L60.41,37L60.22,37.25C59.95,37.51 59.48,37.25 59.21,37.12L59.58,37.45L59.09,37.35C59.6,37.66 58.96,37.48 59.18,37.83C58.99,37.8 58.91,37.7 58.81,37.77L59.36,38.41L59.14,38.06L59.83,38.29C60.28,38.72 59.65,38.65 59.78,38.9L59.61,38.7C59.69,39.07 59.38,39.01 59.18,39.14C59.33,39.12 59.54,39.09 59.6,39.25C59.61,39.36 59.34,39.23 59.24,39.3C59.7,39.45 59.88,39.76 59.6,39.91C59.53,39.89 59.47,39.87 59.43,39.84C59.49,39.91 59.6,39.98 59.46,40.04L58.96,39.84L59.4,40.16C59.22,40.24 59.55,40.52 59.2,40.4L59.12,40.3L58.73,41.17L58.31,41.06C58.85,41.31 57.95,41.49 58.67,41.67C58.23,41.73 58.75,42.42 57.98,42.09C57.74,42.66 58.43,43.22 57.82,43.81C57.06,43.86 57.07,44.62 56.86,45.05C56.86,46.02 56.96,46.69 56.87,47.66C55.75,47.89 56.75,49.11 56.02,49.52L56.34,49.81C55.62,50 56.15,50.83 55.37,51.16C55.48,51.35 55.51,51.43 55.51,51.47C55.54,51.45 55.62,51.44 55.86,51.51C55.64,51.6 55.73,51.99 55.27,51.79L55.24,51.73C54.78,51.54 55.29,52.27 54.82,52.29L55.35,52.38L55.16,52.64L55.09,52.53C55.75,54.21 53.94,54.15 54.46,55.69C53.99,55.31 54.65,56.03 54.06,55.8C53.2,55.78 54,56.4 54.09,56.73C54.12,56.74 54.15,56.76 54.19,56.79L53.95,57.18C53.32,56.61 54.44,57.75 53.9,57.24C52.87,58.06 52.77,59.68 51.93,60.77L52.14,60.81C51.94,61.09 51.96,61.58 51.54,61.65C51.13,61.72 51.73,62.39 51.71,62.5C51.88,62.92 51.14,62.81 51.23,62.72C51.17,63.03 51.67,63.65 51.19,63.86C50.55,63.65 51.16,65.19 50.5,64.8L50.55,64.84C49.8,65.01 50.3,65.93 49.58,66.15C49.58,66.15 49.54,66.11 49.51,66.06C49.95,66.82 50.37,67.59 50.79,68.38L53.1,69.53C53.87,69.61 54.66,69.67 55.45,69.73C55.88,68.76 56.36,67.82 56.72,66.83L58.63,65.04C59.1,64.13 59.45,63.19 59.85,62.27C60.24,61.34 60.64,60.42 60.96,59.48L60.59,58.86C61.97,58.17 61.48,56.35 62.56,55.44L62.1,55.24C62.19,54.9 62.47,55.03 62.59,54.98C63.65,51.86 63.97,48.51 65.42,45.94C65.82,45.77 65.87,44.91 66.26,44.8C65.94,43.74 66.22,42.79 66.53,41.92L66.57,41.97L66.6,41.53C66.6,41.53 66.7,41.53 66.73,41.56C66.44,40.97 67.07,40.35 67.41,39.82L67.45,39.87C68.49,36.54 68.48,33.19 70.16,30.17C71.41,28.93 70.91,26.84 72.16,25.4C72.7,25.24 73.66,21.82 73.56,21.44L73.58,21.45Z" style="fill:white;fill-rule:nonzero;"/>
            <path d="M75.13,16.45C75.32,16.56 75.26,16.5 75.13,16.45Z" style="fill:white;fill-rule:nonzero;"/>
            <path d="M66.83,21.1L66.84,21.08L66.53,21.06L66.83,21.1Z" style="fill:white;fill-rule:nonzero;"/>
            <path d="M68.63,16.37C68.48,16.55 68.52,16.58 68.61,16.59C68.66,16.52 68.67,16.45 68.63,16.37Z" style="fill:white;fill-rule:nonzero;"/>
            <path d="M75.57,14.74C75.64,14.65 75.51,14.63 75.35,14.62C75.32,14.73 75.29,14.81 75.29,14.81C75.36,14.78 75.49,14.78 75.56,14.74L75.57,14.74Z" style="fill:white;fill-rule:nonzero;"/>
            <path d="M72.85,13.81L72.72,13.7C72.72,13.78 72.78,13.81 72.85,13.81Z" style="fill:white;fill-rule:nonzero;"/>
        </g>
    </g>
</svg>
